<?xml version="1.0" standalone="no"?>
<!DOCTYPE svg PUBLIC "-//W3C//DTD SVG 20010904//EN"
 "http://www.w3.org/TR/2001/REC-SVG-20010904/DTD/svg10.dtd">
<svg version="1.0" xmlns="http://www.w3.org/2000/svg"
 width="1549.000000pt" height="694.000000pt" viewBox="0 0 1549.000000 694.000000"
 preserveAspectRatio="xMidYMid meet">

<g transform="translate(0.000000,694.000000) scale(0.100000,-0.100000)"
fill="#fff" stroke="none">
<path d="M14698 6853 c89 -2 235 -2 325 0 89 1 16 3 -163 3 -179 0 -252 -2
-162 -3z"/>
<path d="M14514 6670 c0 -91 2 -128 3 -82 2 45 2 119 0 165 -1 45 -3 8 -3 -83z"/>
<path d="M15204 6670 c0 -91 2 -128 3 -82 2 45 2 119 0 165 -1 45 -3 8 -3 -83z"/>
<path d="M125 6725 c-14 -13 -25 -35 -25 -48 0 -32 36 -77 61 -77 30 0 59 18
59 37 0 14 -4 13 -20 -5 -25 -26 -43 -28 -64 -6 -33 32 -11 114 29 114 8 0 23
-10 35 -22 11 -12 20 -17 20 -11 0 15 -34 43 -54 43 -9 0 -28 -11 -41 -25z"/>
<path d="M460 6740 c0 -5 5 -10 10 -10 6 0 10 5 10 10 0 6 -4 10 -10 10 -5 0
-10 -4 -10 -10z"/>
<path d="M570 6725 c0 -22 -3 -25 -24 -19 -18 4 -27 1 -35 -14 -25 -48 -7 -84
43 -88 l36 -3 0 74 c0 43 -4 75 -10 75 -5 0 -10 -11 -10 -25z m-16 -31 c23 -9
21 -70 -1 -78 -11 -5 -22 -1 -30 10 -16 22 -16 30 -3 55 12 21 12 21 34 13z"/>
<path d="M14663 6680 c0 -36 2 -50 4 -32 2 17 2 47 0 65 -2 17 -4 3 -4 -33z"/>
<path d="M15048 6719 c-8 -25 7 -92 22 -96 12 -4 12 -2 2 5 -8 5 -12 25 -11
50 3 41 -5 65 -13 41z"/>
<path d="M253 6684 c-15 -24 -15 -29 -2 -53 18 -32 45 -38 70 -15 24 22 24 56
1 77 -26 24 -49 21 -69 -9z m51 10 c22 -8 22 -70 0 -78 -35 -13 -60 44 -32 72
14 14 12 14 32 6z"/>
<path d="M367 6663 c22 -66 29 -71 46 -31 24 58 30 81 19 74 -6 -3 -13 -20
-17 -36 -10 -45 -23 -45 -36 0 -7 22 -16 40 -20 40 -4 0 -1 -21 8 -47z"/>
<path d="M460 6655 c0 -30 5 -55 10 -55 6 0 10 25 10 55 0 30 -4 55 -10 55 -5
0 -10 -25 -10 -55z"/>
<path d="M622 6650 c1 -49 2 -50 5 -13 4 42 24 70 43 58 5 -3 11 -27 11 -53
l2 -47 6 43 c13 78 51 83 51 6 0 -24 5 -44 10 -44 15 0 12 74 -4 96 -13 16
-18 17 -35 7 -12 -8 -22 -9 -26 -3 -3 5 -19 8 -35 7 -30 -2 -30 -3 -28 -57z"/>
<path d="M14700 6696 c-15 -19 -9 -56 12 -69 34 -22 66 41 36 71 -16 16 -33
15 -48 -2z m45 -31 c0 -23 -4 -30 -20 -30 -21 0 -31 25 -21 51 11 28 41 12 41
-21z"/>
<path d="M14880 6696 c-15 -19 -9 -56 12 -69 34 -22 66 41 36 71 -16 16 -33
15 -48 -2z m45 -31 c0 -23 -4 -30 -20 -30 -21 0 -31 25 -21 51 11 28 41 12 41
-21z"/>
<path d="M14962 6683 c-3 -41 6 -63 26 -63 14 0 14 1 -1 13 -9 6 -18 28 -20
47 l-4 35 -1 -32z"/>
<path d="M14782 6665 c0 -16 2 -22 5 -12 2 9 2 23 0 30 -3 6 -5 -1 -5 -18z"/>
<path d="M14830 6611 c0 -9 -9 -12 -25 -9 -13 3 -22 1 -19 -3 7 -13 42 -11 49
2 4 6 4 13 1 16 -3 4 -6 1 -6 -6z"/>
<path d="M14698 6483 c89 -2 235 -2 325 0 89 1 16 3 -163 3 -179 0 -252 -2
-162 -3z"/>
<path d="M44 6248 c-30 -14 -48 -51 -40 -82 7 -28 41 -50 96 -61 81 -16 105
-65 46 -94 -40 -19 -103 0 -116 35 -12 31 -30 31 -30 -1 0 -83 171 -102 204
-23 25 59 -1 91 -91 114 -65 17 -88 37 -73 65 21 39 116 31 127 -11 5 -19 23
-26 36 -14 11 11 -17 56 -44 70 -32 16 -84 17 -115 2z"/>
<path d="M1040 6115 c0 -138 1 -145 20 -145 18 0 20 7 20 80 0 84 9 100 59
100 30 0 41 -30 41 -109 0 -56 3 -71 15 -71 12 0 15 16 15 85 0 72 -3 88 -20
105 -22 22 -60 26 -91 10 -18 -10 -19 -7 -19 40 0 43 -3 50 -20 50 -19 0 -20
-7 -20 -145z"/>
<path d="M1402 6248 c-7 -7 -12 -25 -12 -40 0 -21 -5 -28 -20 -28 -11 0 -20
-7 -20 -15 0 -8 9 -15 20 -15 19 0 20 -7 20 -90 0 -73 3 -90 15 -90 12 0 15
17 15 90 0 83 1 90 20 90 11 0 20 7 20 15 0 9 -9 15 -21 15 -30 0 -22 44 9 48
12 2 22 10 22 18 0 17 -51 19 -68 2z"/>
<path d="M1960 6115 c0 -138 1 -145 20 -145 18 0 20 7 20 70 l0 70 75 0 75 0
0 -70 c0 -56 3 -70 15 -70 13 0 15 23 15 145 0 122 -2 145 -15 145 -12 0 -15
-13 -15 -60 l0 -60 -75 0 -75 0 0 60 c0 53 -2 60 -20 60 -19 0 -20 -7 -20
-145z"/>
<path d="M2890 6240 c0 -11 7 -20 15 -20 8 0 15 9 15 20 0 11 -7 20 -15 20 -8
0 -15 -9 -15 -20z"/>
<path d="M3310 6115 c0 -122 2 -145 15 -145 13 0 15 23 15 145 0 122 -2 145
-15 145 -13 0 -15 -23 -15 -145z"/>
<path d="M3720 6115 c0 -121 2 -145 15 -145 12 0 15 21 17 112 l3 112 74 -112
c104 -157 111 -155 111 33 0 122 -2 145 -15 145 -12 0 -15 -19 -15 -110 0 -60
-3 -110 -7 -110 -5 0 -39 49 -78 110 -98 153 -105 150 -105 -35z"/>
<path d="M2990 6210 c0 -20 -5 -30 -15 -30 -8 0 -15 -7 -15 -15 0 -8 7 -15 15
-15 12 0 15 -16 15 -84 0 -88 4 -96 51 -96 25 0 25 20 -1 27 -18 5 -20 14 -20
79 0 59 3 74 15 74 8 0 15 7 15 15 0 8 -7 15 -15 15 -10 0 -15 10 -15 30 0 20
-5 30 -15 30 -10 0 -15 -10 -15 -30z"/>
<path d="M291 6154 c-27 -23 -31 -32 -31 -77 0 -29 6 -59 13 -68 34 -44 102
-51 144 -15 35 30 23 46 -16 23 -38 -22 -67 -21 -91 3 -39 39 -27 50 55 50
l75 0 0 29 c0 37 -49 81 -90 81 -16 0 -42 -11 -59 -26z m101 -21 c29 -26 21
-33 -42 -33 -33 0 -60 3 -60 7 0 3 7 15 17 25 20 22 61 23 85 1z"/>
<path d="M523 6170 c-12 -5 -27 -18 -33 -30 -16 -30 16 -40 36 -11 18 25 65
28 84 6 21 -25 4 -42 -49 -49 -56 -7 -81 -26 -81 -61 0 -46 61 -68 116 -43 22
10 28 10 32 0 2 -6 9 -12 16 -12 9 0 11 22 8 88 -3 72 -7 90 -24 105 -21 18
-69 21 -105 7z m97 -117 c0 -44 -72 -71 -100 -38 -21 26 4 40 93 54 4 0 7 -7
7 -16z"/>
<path d="M710 6075 c0 -87 3 -105 15 -105 12 0 15 13 15 59 0 70 13 109 37
117 10 3 24 8 32 10 11 4 12 7 3 16 -9 9 -20 10 -42 1 -17 -6 -30 -7 -30 -2 0
5 -7 9 -15 9 -12 0 -15 -18 -15 -105z"/>
<path d="M882 6170 c-24 -10 -52 -65 -52 -102 0 -39 35 -85 70 -93 38 -8 81 8
99 36 21 35 -4 48 -29 16 -42 -53 -100 -26 -100 47 0 67 62 104 92 56 7 -11
18 -20 25 -20 17 0 16 35 -1 49 -20 17 -77 23 -104 11z"/>
<path d="M1525 6168 c-34 -20 -44 -41 -44 -93 0 -53 10 -74 46 -93 80 -43 162
36 134 129 -18 58 -85 86 -136 57z m87 -35 c23 -21 24 -89 1 -115 -39 -43
-103 -8 -103 57 0 64 58 98 102 58z"/>
<path d="M1710 6075 c0 -87 3 -105 15 -105 12 0 15 13 15 59 0 70 13 109 37
117 10 3 24 8 32 10 11 4 12 7 3 16 -9 9 -20 10 -42 1 -17 -6 -30 -7 -30 -2 0
5 -7 9 -15 9 -12 0 -15 -18 -15 -105z"/>
<path d="M2280 6167 c-35 -18 -52 -55 -47 -106 6 -60 34 -86 93 -86 61 0 94
35 94 101 0 81 -70 126 -140 91z m80 -27 c24 -13 35 -66 21 -102 -19 -51 -90
-49 -111 2 -29 70 28 133 90 100z"/>
<path d="M2482 6164 c-22 -15 -27 -38 -16 -68 3 -9 30 -23 60 -32 60 -17 71
-28 54 -49 -18 -22 -67 -19 -82 5 -14 22 -33 26 -43 10 -11 -17 42 -60 74 -60
44 0 81 20 88 48 9 37 -8 55 -68 73 -40 12 -54 21 -54 35 0 25 56 32 78 10 20
-20 37 -20 37 -2 0 22 -40 46 -75 46 -17 0 -41 -7 -53 -16z"/>
<path d="M2670 6035 c0 -122 2 -145 15 -145 11 0 15 12 15 50 0 47 1 50 19 40
33 -17 61 -11 92 19 23 24 29 38 29 74 0 60 -7 75 -41 92 -36 19 -58 19 -81
-2 -17 -15 -18 -15 -18 0 0 10 -7 17 -15 17 -13 0 -15 -23 -15 -145z m124 93
c34 -48 9 -128 -39 -128 -35 0 -55 26 -55 72 0 70 60 105 94 56z"/>
<path d="M2890 6075 c0 -87 3 -105 15 -105 12 0 15 18 15 105 0 87 -3 105 -15
105 -12 0 -15 -18 -15 -105z"/>
<path d="M3123 6170 c-12 -5 -27 -18 -33 -30 -16 -30 16 -40 36 -11 18 25 65
28 84 6 21 -25 4 -42 -49 -49 -56 -7 -81 -26 -81 -61 0 -46 61 -68 116 -43 22
10 28 10 32 0 2 -6 9 -12 16 -12 9 0 11 22 8 88 -3 72 -7 90 -24 105 -21 18
-69 21 -105 7z m97 -117 c0 -44 -72 -71 -100 -38 -21 26 4 40 93 54 4 0 7 -7
7 -16z"/>
<path d="M3428 6170 c-59 -36 -38 -91 42 -110 43 -10 51 -15 48 -34 -5 -32
-70 -36 -92 -4 -13 18 -18 20 -28 9 -11 -10 -8 -17 15 -37 38 -32 90 -32 122
1 43 42 26 76 -48 96 -55 14 -71 27 -56 45 16 19 59 17 81 -3 24 -21 44 -5 25
21 -15 21 -85 31 -109 16z"/>
<path d="M4040 6168 c-52 -28 -67 -117 -27 -163 39 -46 146 -41 155 8 4 21
-21 23 -38 2 -27 -33 -86 -12 -103 38 -6 15 2 17 75 17 l81 0 -7 32 c-4 18
-15 41 -24 51 -24 23 -81 31 -112 15z m81 -28 c10 -6 19 -17 19 -25 0 -11 -13
-15 -55 -15 -41 0 -55 4 -55 15 0 29 54 44 91 25z"/>
<path d="M4248 6160 c-29 -22 -37 -50 -15 -50 7 0 18 9 25 20 17 28 77 28 93
-1 14 -27 3 -35 -60 -44 -76 -11 -103 -53 -61 -95 23 -23 64 -26 103 -6 23 13
27 13 27 0 0 -8 8 -14 18 -14 15 0 16 9 12 90 -3 49 -10 94 -17 101 -6 6 -31
13 -55 16 -34 4 -49 0 -70 -17z m104 -116 c-8 -47 -94 -61 -100 -17 -2 17 3
24 20 27 56 12 64 13 73 11 6 -1 9 -11 7 -21z"/>
<path d="M4450 6075 c0 -87 3 -105 15 -105 12 0 15 15 15 71 0 82 11 109 45
109 14 0 25 5 25 10 0 17 -31 24 -51 11 -12 -7 -19 -7 -19 -1 0 5 -7 10 -15
10 -12 0 -15 -18 -15 -105z"/>
<path d="M4670 6177 c0 -1 17 -48 39 -104 33 -86 37 -105 27 -125 -6 -13 -21
-24 -33 -26 -26 -4 -20 -32 7 -32 28 0 46 29 94 153 51 131 52 137 32 137 -8
0 -25 -32 -41 -80 -16 -43 -31 -77 -35 -75 -3 2 -17 38 -30 79 -18 58 -28 76
-42 76 -10 0 -18 -1 -18 -3z"/>
<path d="M4925 6168 c-34 -20 -44 -41 -44 -93 0 -53 10 -74 46 -93 80 -43 162
36 134 129 -18 58 -85 86 -136 57z m87 -35 c23 -21 24 -89 1 -115 -39 -43
-103 -8 -103 57 0 64 58 98 102 58z"/>
<path d="M5110 6095 c0 -72 3 -88 20 -105 24 -24 67 -26 98 -4 20 14 22 14 22
0 0 -9 7 -16 15 -16 12 0 15 18 15 105 0 98 -1 105 -20 105 -18 0 -20 -7 -20
-80 0 -84 -9 -100 -59 -100 -30 0 -41 30 -41 109 0 56 -3 71 -15 71 -12 0 -15
-16 -15 -85z"/>
<path d="M14730 5290 l0 -250 264 0 c227 0 267 2 280 16 14 13 16 49 16 234 0
185 -2 221 -16 234 -13 14 -53 16 -280 16 l-264 0 0 -250z m280 40 c8 -5 12
-12 8 -15 -3 -4 -15 -1 -26 6 -38 24 -72 -32 -37 -61 16 -13 45 -7 45 9 0 5
-8 12 -17 14 -11 3 -7 5 10 6 24 1 28 -3 25 -21 -7 -49 -98 -28 -98 22 0 40
53 64 90 40z m85 -50 c0 -32 -2 -35 -30 -35 -24 0 -31 5 -33 23 -6 38 5 54 35
50 25 -3 28 -7 28 -38z"/>
<path d="M15054 5296 c-8 -21 3 -49 16 -41 5 3 10 15 10 25 0 25 -18 36 -26
16z"/>
<path d="M70 3640 l0 -1850 4555 0 4555 0 0 1850 0 1850 -4555 0 -4555 0 0
-1850z m1387 1810 c-7 -26 19 -48 36 -31 7 7 8 12 2 11 -25 -5 -26 2 -2 20 32
26 33 25 32 -7 0 -22 5 -28 22 -29 16 -1 24 6 28 27 l6 28 3790 0 3789 1 0
-163 c0 -89 -5 -182 -11 -207 -7 -31 -7 -46 0 -48 8 -3 11 -492 11 -1617 l0
-1613 -22 -6 c-36 -9 -238 -7 -238 3 0 5 9 11 21 14 15 4 20 12 17 28 -2 12
-9 24 -16 25 -7 1 -8 0 -2 -3 15 -7 12 -43 -4 -43 -8 0 -17 12 -19 28 -3 19
-4 14 -6 -15 l-1 -43 -700 0 -700 0 10 25 c5 14 7 25 5 25 -3 0 -10 -11 -15
-25 -9 -23 -14 -25 -80 -25 -72 0 -82 4 -54 24 13 10 13 12 -5 12 -14 0 -21
-7 -21 -18 0 -17 -23 -18 -420 -18 -273 0 -420 3 -420 10 0 6 7 10 15 10 8 0
15 4 15 10 0 5 -6 7 -14 4 -10 -4 -16 3 -19 23 -3 21 -4 17 -6 -14 l-1 -43
-954 0 c-626 0 -957 3 -961 10 -3 5 -12 10 -18 10 -7 0 -6 -4 3 -10 10 -6
-555 -10 -1582 -10 -999 0 -1598 3 -1598 9 0 6 4 12 10 16 5 3 7 12 3 20 -3 8
1 15 8 15 7 0 9 3 6 7 -11 10 -43 -30 -39 -49 2 -11 -3 -18 -13 -18 -9 0 -15
6 -14 13 4 34 -2 47 -24 47 -28 0 -47 -17 -47 -42 0 -14 -8 -18 -35 -18 -24 0
-35 5 -35 15 0 8 6 15 13 16 9 0 9 2 -1 6 -10 4 -10 8 -1 19 8 9 8 14 1 14
-14 0 -25 -18 -26 -44 -1 -11 -9 -22 -18 -24 -14 -3 -16 3 -13 35 l5 38 -11
-38 c-12 -40 -40 -53 -33 -15 l5 23 -12 -23 c-7 -12 -18 -22 -25 -22 -7 0 -10
9 -8 22 l5 23 -12 -23 c-7 -12 -18 -22 -26 -22 -8 0 -11 5 -8 10 3 6 -1 10
-10 10 -9 0 -13 -5 -10 -10 3 -5 -3 -10 -14 -10 -12 0 -21 4 -21 8 0 15 25 40
45 45 15 3 12 5 -8 6 -23 1 -31 -5 -40 -29 l-11 -30 -433 0 -433 0 0 145 c0
90 4 145 10 145 6 0 10 -13 10 -30 0 -16 5 -30 10 -30 6 0 10 14 10 30 0 17 5
30 10 30 6 0 10 5 10 10 0 6 -13 10 -30 10 l-29 0 0 1202 c0 662 4 1212 9
1223 7 18 8 19 15 3 11 -28 20 -21 20 13 0 24 -6 35 -22 42 l-23 10 0 429 0
428 686 0 c672 -1 686 -1 681 -20z m106 14 c3 -4 2 -16 -4 -26 -13 -24 -33
-10 -23 15 6 18 16 21 27 11z m-1443 -884 c0 -5 -4 -10 -10 -10 -5 0 -10 5
-10 10 0 6 5 10 10 10 6 0 10 -4 10 -10z m1200 -2745 c0 -20 -5 -25 -25 -25
-27 0 -33 18 -13 38 20 20 38 14 38 -13z"/>
<path d="M1414 5443 c1 -13 -5 -17 -19 -15 -15 3 -17 1 -9 -7 15 -16 44 -3 44
20 0 10 -4 19 -9 19 -5 0 -8 -8 -7 -17z"/>
<path d="M8010 5380 c0 -32 4 -40 19 -40 22 0 46 25 32 34 -5 3 -7 15 -4 26 4
16 0 20 -21 20 -24 0 -26 -4 -26 -40z m40 20 c0 -5 -7 -10 -15 -10 -8 0 -15 5
-15 10 0 6 7 10 15 10 8 0 15 -4 15 -10z m0 -35 c0 -8 -7 -15 -15 -15 -8 0
-15 7 -15 15 0 8 7 15 15 15 8 0 15 -7 15 -15z"/>
<path d="M8235 5400 c-8 -13 2 -60 13 -60 8 0 8 57 0 66 -3 3 -9 0 -13 -6z"/>
<path d="M8103 5393 c18 -5 17 -6 -2 -20 -24 -16 -19 -33 10 -33 14 0 19 7 19
30 0 25 -4 30 -22 29 -19 -1 -20 -2 -5 -6z m17 -33 c0 -5 -4 -10 -10 -10 -5 0
-10 5 -10 10 0 6 5 10 10 10 6 0 10 -4 10 -10z"/>
<path d="M8162 5373 c2 -20 8 -28 23 -28 31 0 28 49 -3 53 -20 3 -23 0 -20
-25z m36 0 c-5 -25 -28 -28 -28 -4 0 12 6 21 16 21 9 0 14 -7 12 -17z"/>
<path d="M8287 5386 c-10 -26 4 -47 27 -44 15 2 21 10 21 28 0 29 -38 41 -48
16z m36 -2 c8 -8 -3 -34 -14 -34 -5 0 -9 9 -9 20 0 19 11 26 23 14z"/>
<path d="M8363 5375 c2 -23 7 -31 25 -33 19 -3 22 1 21 30 -2 31 -2 31 -6 5
-5 -33 -24 -31 -35 4 -6 22 -7 21 -5 -6z"/>
<path d="M571 5329 c-15 -44 -14 -57 3 -34 14 19 15 19 35 1 l21 -19 -13 38
c-17 50 -32 54 -46 14z m29 1 c0 -5 -5 -10 -11 -10 -5 0 -7 5 -4 10 3 6 8 10
11 10 2 0 4 -4 4 -10z"/>
<path d="M651 5318 c1 -27 3 -34 6 -19 l5 25 19 -25 c10 -13 19 -19 19 -12 0
6 -5 15 -10 18 -8 5 -7 11 0 20 15 18 4 35 -21 35 -16 0 -19 -7 -18 -42z m29
22 c0 -5 -4 -10 -10 -10 -5 0 -10 5 -10 10 0 6 5 10 10 10 6 0 10 -4 10 -10z"/>
<path d="M720 5326 c0 -38 20 -61 21 -24 l0 23 10 -25 c8 -20 12 -22 19 -10 5
8 10 22 10 30 0 13 -2 13 -9 1 -8 -12 -11 -9 -16 12 -10 40 -35 35 -35 -7z"/>
<path d="M784 5338 c3 -13 6 -31 6 -41 0 -10 5 -15 10 -12 6 3 10 22 10 41 0
25 -4 34 -16 34 -12 0 -15 -6 -10 -22z"/>
<path d="M840 5320 c0 -35 3 -40 23 -39 16 1 18 2 5 6 -10 2 -18 11 -18 18 0
7 8 16 18 18 16 4 16 5 0 6 -10 0 -18 5 -18 10 0 5 8 12 18 14 13 4 11 5 -5 6
-20 1 -23 -4 -23 -39z"/>
<path d="M910 5318 c0 -49 5 -47 13 5 3 20 2 37 -4 37 -5 0 -9 -19 -9 -42z"/>
<path d="M960 5333 c0 -26 -1 -26 -15 -7 -8 10 -15 14 -15 8 0 -7 9 -22 20
-35 l19 -24 1 43 c0 23 -2 42 -5 42 -3 0 -5 -12 -5 -27z"/>
<path d="M1003 5320 c0 -25 2 -35 4 -22 2 12 2 32 0 45 -2 12 -4 2 -4 -23z"/>
<path d="M1051 5329 c-15 -44 -14 -56 4 -33 15 19 15 19 30 0 8 -11 15 -15 15
-9 0 19 -22 73 -30 73 -4 0 -13 -14 -19 -31z m29 1 c0 -5 -4 -10 -10 -10 -5 0
-10 5 -10 10 0 6 5 10 10 10 6 0 10 -4 10 -10z"/>
<path d="M1988 5193 c6 -2 12 -20 12 -39 0 -19 5 -34 10 -34 6 0 10 15 10 34
0 19 6 37 13 39 6 3 -4 5 -23 5 -19 0 -29 -2 -22 -5z"/>
<path d="M2063 5165 c2 -36 5 -40 27 -40 22 0 25 4 27 40 l1 40 -6 -35 c-4
-22 -13 -35 -22 -35 -9 0 -18 13 -22 35 l-6 35 1 -40z"/>
<path d="M2151 5158 c1 -24 3 -35 6 -25 6 21 12 22 28 0 10 -14 12 -10 11 23
-1 32 -5 40 -23 42 -21 3 -23 0 -22 -40z m31 17 c0 -5 -5 -11 -11 -13 -6 -2
-11 4 -11 13 0 9 5 15 11 13 6 -2 11 -8 11 -13z"/>
<path d="M2232 5160 c0 -25 2 -37 5 -27 6 21 19 22 27 2 3 -8 11 -15 17 -15 7
0 5 7 -5 19 -15 16 -16 23 -5 43 12 23 12 23 -9 5 -20 -18 -20 -18 -25 0 -3
10 -5 -2 -5 -27z"/>
<path d="M2311 5158 c2 -35 3 -37 6 -13 l5 30 13 -30 13 -30 12 30 13 30 7
-30 c7 -28 8 -27 9 13 1 50 -14 55 -32 10 l-14 -33 -7 33 c-11 46 -26 40 -25
-10z"/>
<path d="M2420 5160 c0 -35 3 -40 23 -39 16 1 18 2 5 6 -10 2 -18 11 -18 18 0
7 8 16 18 18 16 4 16 5 0 6 -10 0 -18 5 -18 10 0 5 8 12 18 14 13 4 11 5 -5 6
-20 1 -23 -4 -23 -39z"/>
<path d="M2490 5158 c0 -49 5 -47 13 5 3 20 2 37 -4 37 -5 0 -9 -19 -9 -42z"/>
<path d="M2540 5173 c0 -26 -1 -26 -15 -7 -19 26 -19 4 1 -24 23 -33 34 -27
34 18 0 22 -4 40 -10 40 -5 0 -10 -12 -10 -27z"/>
<path d="M2580 5160 c0 -22 5 -40 10 -40 6 0 10 18 10 40 0 22 -4 40 -10 40
-5 0 -10 -18 -10 -40z"/>
<path d="M2624 5188 c-4 -7 2 -18 14 -26 28 -18 28 -29 0 -35 l-23 -4 23 -2
c28 -1 42 28 19 41 -22 12 -22 25 1 31 13 4 12 5 -5 6 -12 0 -25 -4 -29 -11z"/>
<path d="M2697 5192 c6 -4 13 -23 16 -42 l4 -35 1 37 c2 25 7 38 20 41 9 3 1
5 -18 6 -19 0 -30 -3 -23 -7z"/>
<path d="M2776 5176 c-3 -13 -9 -32 -12 -41 -6 -15 -4 -15 14 -4 17 10 23 10
36 0 20 -17 20 -13 1 33 -18 42 -30 46 -39 12z m21 -18 c-3 -8 -6 -5 -6 6 -1
11 2 17 5 13 3 -3 4 -12 1 -19z"/>
<path d="M2851 5158 c1 -40 2 -41 8 -13 l8 30 13 -27 c19 -40 30 -34 29 15 -1
39 -2 40 -8 12 l-8 -30 -13 28 c-19 39 -30 33 -29 -15z"/>
<path d="M3477 5092 c6 -4 13 -23 16 -42 l4 -35 1 37 c2 25 7 38 20 41 9 3 1
5 -18 6 -19 0 -30 -3 -23 -7z"/>
<path d="M3556 5076 c-3 -13 -9 -32 -12 -43 -5 -17 -5 -17 9 0 18 21 33 22 41
1 4 -9 9 -14 12 -12 8 8 -23 78 -34 78 -6 0 -13 -11 -16 -24z"/>
<path d="M3632 5065 c-1 -23 -7 -46 -14 -53 -9 -9 -9 -12 0 -12 18 0 24 22 19
66 l-4 39 -1 -40z"/>
<path d="M3673 5060 c0 -25 2 -35 4 -22 2 12 2 32 0 45 -2 12 -4 2 -4 -23z"/>
<path d="M3710 5066 c0 -19 5 -38 10 -41 6 -3 10 4 10 16 0 21 0 21 20 -2 10
-13 19 -19 20 -13 0 5 -6 16 -12 22 -10 10 -10 17 0 32 7 11 8 20 3 20 -6 0
-15 -8 -20 -17 -10 -17 -10 -17 -11 0 0 9 -4 17 -10 17 -5 0 -10 -15 -10 -34z"/>
<path d="M3790 5060 c0 -22 5 -40 10 -40 6 0 10 18 10 40 0 22 -4 40 -10 40
-5 0 -10 -18 -10 -40z"/>
<path d="M3834 5089 c-4 -7 3 -19 16 -29 23 -18 13 -38 -12 -24 -10 5 -10 4
-1 -6 15 -16 43 -6 43 15 0 9 -7 18 -15 21 -20 8 -19 21 3 27 13 4 12 5 -5 6
-12 0 -25 -4 -29 -10z"/>
<path d="M3907 5092 c6 -4 13 -23 16 -42 l4 -35 1 37 c2 25 7 38 20 41 9 3 1
5 -18 6 -19 0 -30 -3 -23 -7z"/>
<path d="M3986 5076 c-3 -13 -9 -32 -12 -43 -5 -17 -5 -17 9 0 18 21 33 22 41
1 4 -9 9 -14 12 -12 8 8 -23 78 -34 78 -6 0 -13 -11 -16 -24z"/>
<path d="M4060 5058 c0 -49 5 -47 13 5 3 20 2 37 -4 37 -5 0 -9 -19 -9 -42z"/>
<path d="M4110 5073 c0 -26 -1 -26 -15 -7 -8 10 -15 14 -15 8 0 -7 9 -22 20
-35 l19 -24 1 43 c0 23 -2 42 -5 42 -3 0 -5 -12 -5 -27z"/>
<path d="M7367 4813 c-21 -20 2 -73 31 -73 9 0 6 7 -9 18 -27 22 -21 48 13 55
22 4 22 4 -3 6 -14 0 -29 -2 -32 -6z"/>
<path d="M7442 4780 c-1 -36 1 -41 8 -22 5 12 16 22 24 22 8 0 17 -10 19 -22
2 -13 4 -3 4 22 1 25 -1 37 -4 28 -2 -10 -13 -18 -23 -18 -10 0 -21 8 -23 18
-3 9 -5 -3 -5 -28z"/>
<path d="M7543 4780 c0 -25 2 -35 4 -22 2 12 2 32 0 45 -2 12 -4 2 -4 -23z"/>
<path d="M7580 4778 c0 -49 5 -47 13 5 3 20 2 37 -4 37 -5 0 -9 -19 -9 -42z"/>
<path d="M7630 4793 c0 -26 -1 -26 -15 -7 -8 10 -15 14 -15 8 0 -7 9 -22 20
-35 l19 -24 1 43 c0 23 -2 42 -5 42 -3 0 -5 -12 -5 -27z"/>
<path d="M7679 4793 c-5 -16 -12 -34 -14 -40 -2 -7 0 -13 5 -13 6 0 10 5 10
10 0 6 9 10 20 10 11 0 20 -5 20 -12 0 -6 3 -9 6 -5 8 8 -16 77 -27 77 -5 0
-14 -12 -20 -27z m26 -3 c3 -5 1 -10 -4 -10 -6 0 -11 5 -11 10 0 6 2 10 4 10
3 0 8 -4 11 -10z"/>
<path d="M1500 4665 c0 -25 5 -45 10 -45 6 0 10 12 10 26 0 32 22 27 31 -7 6
-21 7 -21 8 9 1 26 -3 32 -19 32 -11 0 -20 7 -20 15 0 8 -4 15 -10 15 -5 0
-10 -20 -10 -45z"/>
<path d="M1353 4693 c12 -3 17 -16 19 -41 l1 -37 4 35 c3 19 10 38 16 42 7 4
-4 7 -23 7 -19 -1 -27 -3 -17 -6z"/>
<path d="M1424 4666 c-10 -27 4 -46 33 -45 24 2 25 2 6 6 -29 6 -30 23 -2 23
27 0 19 24 -9 28 -13 2 -25 -3 -28 -12z"/>
<path d="M1591 4648 c1 -21 3 -26 6 -13 3 11 12 26 21 33 14 11 13 12 -6 12
-18 0 -22 -5 -21 -32z"/>
<path d="M1670 4671 c25 -7 25 -7 3 -13 -32 -8 -30 -38 2 -38 21 0 25 5 25 30
0 26 -3 30 -27 29 l-28 -1 25 -7z m20 -31 c0 -5 -7 -10 -16 -10 -8 0 -12 5 -9
10 3 6 10 10 16 10 5 0 9 -4 9 -10z"/>
<path d="M1731 4648 c1 -29 2 -30 8 -9 9 34 31 39 31 7 0 -14 5 -26 11 -26 6
0 9 12 7 28 -2 21 -9 28 -30 30 -26 3 -28 1 -27 -30z"/>
<path d="M216 4576 c-20 -48 -20 -49 4 -34 17 11 22 10 30 -2 18 -28 18 -4 1
35 l-18 40 -17 -39z m24 -1 c0 -8 -4 -15 -10 -15 -5 0 -7 7 -4 15 4 8 8 15 10
15 2 0 4 -7 4 -15z"/>
<path d="M160 4565 c0 -19 5 -35 10 -35 6 0 10 16 10 35 0 19 -4 35 -10 35 -5
0 -10 -16 -10 -35z"/>
<path d="M8272 4518 c-2 -34 1 -38 21 -37 15 1 17 3 5 6 -10 2 -18 17 -21 36
-4 31 -4 31 -5 -5z"/>
<path d="M8422 4528 c-16 -16 -15 -33 4 -48 22 -19 54 12 38 37 -14 22 -27 26
-42 11z m30 -23 c0 -5 -5 -11 -11 -13 -6 -2 -11 4 -11 13 0 9 5 15 11 13 6 -2
11 -8 11 -13z"/>
<path d="M8564 4529 c-4 -7 -3 -9 4 -5 6 3 13 2 17 -4 3 -5 -1 -10 -9 -10 -21
0 -31 -21 -16 -30 22 -14 41 1 38 28 -3 28 -22 40 -34 21z m26 -33 c0 -3 -4
-8 -10 -11 -5 -3 -10 -1 -10 4 0 6 5 11 10 11 6 0 10 -2 10 -4z"/>
<path d="M8643 4533 c-7 -3 -13 -17 -12 -31 1 -26 1 -26 7 -4 4 13 12 23 17
23 6 0 13 -10 17 -23 6 -22 6 -22 7 3 1 27 -14 40 -36 32z"/>
<path d="M8714 4529 c-4 -7 -8 -27 -10 -46 -3 -32 -1 -34 23 -31 33 4 41 24
14 33 -12 4 -21 15 -21 26 0 11 5 17 10 14 6 -4 8 -11 5 -16 -4 -5 -1 -9 5 -9
15 0 9 32 -7 37 -6 2 -15 -1 -19 -8z m26 -59 c0 -5 -7 -10 -16 -10 -8 0 -12 5
-9 10 3 6 10 10 16 10 5 0 9 -4 9 -10z"/>
<path d="M8341 4509 c-1 -32 5 -38 30 -32 13 4 19 14 18 32 0 25 0 25 -9 4 -5
-13 -14 -23 -19 -23 -5 0 -12 10 -14 23 -4 20 -4 20 -6 -4z"/>
<path d="M8490 4521 c0 -7 5 -21 10 -31 8 -15 6 -21 -7 -29 -17 -10 -17 -10 0
-11 9 0 17 2 17 4 0 2 7 20 15 40 9 21 11 36 5 36 -5 0 -10 -8 -10 -17 -1 -16
-2 -16 -15 1 -8 11 -15 14 -15 7z"/>
<path d="M2817 4400 c-8 -22 -11 -40 -6 -40 5 0 9 5 9 10 0 6 9 10 20 10 11 0
20 -5 20 -12 0 -6 3 -9 6 -5 8 7 -15 77 -25 77 -4 0 -15 -18 -24 -40z m33 0
c0 -5 -4 -10 -10 -10 -5 0 -10 5 -10 10 0 6 5 10 10 10 6 0 10 -4 10 -10z"/>
<path d="M2890 4400 c0 -22 5 -40 10 -40 6 0 10 6 10 14 0 8 6 17 13 19 10 4
10 6 0 6 -19 1 -15 29 5 34 10 3 6 5 -10 6 -26 1 -28 -2 -28 -39z"/>
<path d="M2964 4426 c-12 -32 0 -61 29 -64 22 -3 27 1 27 17 0 13 -6 21 -17
21 -15 0 -16 -2 -3 -10 18 -11 6 -25 -15 -16 -25 9 -15 49 15 57 l25 7 -28 1
c-15 1 -30 -5 -33 -13z"/>
<path d="M3053 4400 c0 -25 2 -35 4 -22 3 13 12 22 23 22 11 0 20 -9 23 -22 2
-13 4 -3 4 22 1 25 -1 37 -4 28 -2 -10 -13 -18 -23 -18 -10 0 -21 8 -23 18 -3
9 -5 -3 -4 -28z"/>
<path d="M3147 4403 c-8 -21 -13 -40 -10 -43 3 -3 8 1 10 8 6 15 43 16 43 0 0
-6 3 -9 6 -5 7 7 -17 77 -27 77 -4 0 -14 -17 -22 -37z m33 -4 c0 -5 -4 -9 -10
-9 -5 0 -10 7 -10 16 0 8 5 12 10 9 6 -3 10 -10 10 -16z"/>
<path d="M3221 4398 c2 -42 2 -42 8 -10 l6 34 18 -31 c25 -43 37 -39 36 12 -2
41 -2 41 -8 9 l-6 -34 -18 31 c-25 43 -37 39 -36 -11z"/>
<path d="M3323 4400 c0 -25 2 -35 4 -22 2 12 2 32 0 45 -2 12 -4 2 -4 -23z"/>
<path d="M3360 4421 c0 -10 7 -21 15 -25 23 -8 18 -29 -5 -23 -11 3 -20 1 -20
-4 0 -5 9 -9 20 -9 27 0 38 30 17 42 -22 12 -22 25 1 31 13 4 11 5 -5 6 -16 1
-23 -5 -23 -18z"/>
<path d="M3428 4433 c6 -2 12 -20 12 -39 0 -19 5 -34 10 -34 6 0 10 15 10 34
0 19 6 37 13 39 6 3 -4 5 -23 5 -19 0 -29 -2 -22 -5z"/>
<path d="M3505 4404 c-19 -46 -19 -47 4 -32 15 9 23 9 35 -1 9 -8 16 -11 16
-7 0 12 -29 76 -34 76 -3 0 -13 -16 -21 -36z m22 -6 c-3 -8 -6 -5 -6 6 -1 11
2 17 5 13 3 -3 4 -12 1 -19z"/>
<path d="M3580 4398 c0 -49 5 -47 13 5 3 20 2 37 -4 37 -5 0 -9 -19 -9 -42z"/>
<path d="M3630 4413 c0 -26 -1 -26 -15 -7 -8 10 -15 14 -15 8 0 -7 9 -22 20
-35 l19 -24 1 43 c0 23 -2 42 -5 42 -3 0 -5 -12 -5 -27z"/>
<path d="M124 4369 c-4 -7 1 -16 10 -21 22 -12 21 -29 -1 -21 -14 4 -15 3 -7
-6 11 -12 44 -5 44 10 0 4 -9 14 -21 23 -20 13 -20 14 -2 19 15 4 15 5 1 6 -9
0 -20 -4 -24 -10z"/>
<path d="M560 4295 c0 -19 5 -35 10 -35 6 0 10 16 10 35 0 19 -4 35 -10 35 -5
0 -10 -16 -10 -35z"/>
<path d="M611 4293 c0 -30 2 -34 9 -18 7 18 8 19 15 3 11 -28 20 -21 20 15 0
26 -4 33 -22 35 -21 3 -23 -1 -22 -35z m29 17 c0 -5 -4 -10 -10 -10 -5 0 -10
5 -10 10 0 6 5 10 10 10 6 0 10 -4 10 -10z"/>
<path d="M691 4299 c-14 -41 -14 -41 9 -27 17 11 22 10 30 -2 13 -20 13 1 0
34 -13 35 -26 33 -39 -5z m29 1 c0 -5 -5 -10 -11 -10 -5 0 -7 5 -4 10 3 6 8
10 11 10 2 0 4 -4 4 -10z"/>
<path d="M766 4312 c-9 -27 1 -47 29 -60 22 -10 25 -9 31 12 10 40 1 61 -28
64 -19 2 -28 -2 -32 -16z m54 -17 c0 -18 -5 -25 -20 -25 -15 0 -20 7 -20 25 0
18 5 25 20 25 15 0 20 -7 20 -25z"/>
<path d="M1763 4230 c0 -25 2 -35 4 -22 2 12 2 32 0 45 -2 12 -4 2 -4 -23z"/>
<path d="M1800 4230 c0 -22 5 -40 10 -40 6 0 10 7 10 17 0 14 2 14 21 -3 22
-19 22 -19 10 3 -8 15 -8 24 -1 28 16 10 -8 35 -31 35 -15 0 -19 -8 -19 -40z
m40 15 c0 -8 -4 -15 -10 -15 -5 0 -10 7 -10 15 0 8 5 15 10 15 6 0 10 -7 10
-15z"/>
<path d="M1890 4234 c-7 -19 -9 -38 -6 -41 3 -4 6 -1 6 5 0 7 9 12 20 12 11 0
20 -5 20 -12 0 -6 3 -9 6 -5 8 8 -15 77 -26 77 -5 0 -14 -16 -20 -36z m30 -4
c0 -5 -4 -10 -10 -10 -5 0 -10 5 -10 10 0 6 5 10 10 10 6 0 10 -4 10 -10z"/>
<path d="M1960 4231 c0 -44 19 -58 22 -16 0 14 1 30 2 37 1 6 -5 13 -11 16 -9
2 -13 -9 -13 -37z"/>
<path d="M2022 4241 c-2 -33 -3 -34 -17 -15 -8 10 -15 14 -15 8 0 -16 27 -50
35 -42 3 3 5 23 2 44 l-4 39 -1 -34z"/>
<path d="M8792 4208 c-8 -8 -12 -56 -12 -148 0 -92 4 -140 12 -148 17 -17 289
-17 306 0 8 8 12 56 12 148 0 92 -4 140 -12 148 -8 8 -57 12 -153 12 -96 0
-145 -4 -153 -12z m168 -103 c0 -21 5 -25 30 -25 20 0 30 -5 30 -15 0 -10 -10
-15 -30 -15 -25 0 -30 -4 -30 -25 0 -16 -6 -25 -15 -25 -9 0 -15 9 -15 24 0
19 -6 25 -27 28 -39 4 -42 28 -4 28 26 0 31 4 31 25 0 16 6 25 15 25 9 0 15
-9 15 -25z"/>
<path d="M8792 3838 c-8 -8 -12 -56 -12 -148 0 -92 4 -140 12 -148 17 -17 289
-17 306 0 8 8 12 56 12 148 0 92 -4 140 -12 148 -8 8 -57 12 -153 12 -96 0
-145 -4 -153 -12z m218 -178 c0 -18 -7 -20 -60 -20 -53 0 -60 2 -60 20 0 18 7
20 60 20 53 0 60 -2 60 -20z"/>
<path d="M912 3800 c0 -25 2 -37 5 -27 2 9 7 17 10 17 4 0 16 -8 27 -17 20
-18 20 -18 3 9 -10 16 -13 29 -7 33 6 3 10 11 10 17 0 6 -9 3 -19 -6 -18 -17
-19 -17 -24 1 -3 10 -5 -2 -5 -27z"/>
<path d="M992 3809 c-1 -25 3 -39 13 -43 29 -11 45 5 44 43 l-2 36 -6 -33 c-3
-18 -9 -33 -13 -32 -5 0 -12 0 -17 0 -6 0 -12 15 -14 33 l-4 32 -1 -36z"/>
<path d="M1071 3833 c0 -5 6 -24 14 -43 l13 -35 12 30 12 30 12 -30 c14 -33
20 -27 30 25 5 26 4 31 -3 20 -6 -8 -11 -24 -12 -35 0 -13 -4 -8 -10 13 -11
37 -24 41 -34 10 l-8 -23 -4 23 c-4 20 -24 33 -22 15z"/>
<path d="M1199 3813 c-19 -54 -20 -59 -5 -40 7 9 18 17 24 17 6 0 16 -8 21
-17 14 -24 14 -4 0 36 -13 38 -26 40 -40 4z m26 -3 c3 -5 1 -10 -4 -10 -6 0
-11 5 -11 10 0 6 2 10 4 10 3 0 8 -4 11 -10z"/>
<path d="M1273 3800 c0 -25 2 -35 4 -22 2 12 2 32 0 45 -2 12 -4 2 -4 -23z"/>
<path d="M1317 3832 c6 -4 13 -23 16 -42 l4 -35 1 37 c1 20 8 39 15 41 6 3 -1
6 -18 6 -17 0 -25 -3 -18 -7z"/>
<path d="M3260 3800 c0 -22 5 -40 10 -40 6 0 10 6 10 13 0 7 9 18 20 25 25 15
15 42 -16 42 -21 0 -24 -4 -24 -40z m40 21 c0 -6 -4 -13 -10 -16 -5 -3 -10 1
-10 9 0 9 5 16 10 16 6 0 10 -4 10 -9z"/>
<path d="M3346 3816 c-3 -13 -9 -32 -12 -43 -5 -17 -5 -17 9 0 18 21 33 22 41
1 4 -9 9 -14 12 -12 8 8 -23 78 -34 78 -6 0 -13 -11 -16 -24z"/>
<path d="M3422 3800 c0 -34 2 -39 7 -20 l7 25 15 -22 c7 -13 17 -23 22 -23 4
0 0 11 -9 25 -14 21 -14 28 -3 43 12 15 11 15 -8 -1 -21 -18 -21 -18 -26 0 -3
10 -5 -2 -5 -27z"/>
<path d="M3503 3800 c0 -25 2 -35 4 -22 2 12 2 32 0 45 -2 12 -4 2 -4 -23z"/>
<path d="M3540 3825 c0 -9 7 -18 15 -21 8 -4 15 -13 15 -21 0 -9 -6 -13 -15
-9 -8 3 -15 1 -15 -4 0 -15 26 -12 40 4 9 12 7 17 -9 28 -26 16 -27 25 -3 31
13 4 11 5 -5 6 -15 1 -23 -5 -23 -14z"/>
<path d="M3613 3833 c12 -3 17 -16 19 -41 l1 -37 4 35 c3 19 10 38 16 42 7 4
-4 7 -23 7 -19 -1 -27 -3 -17 -6z"/>
<path d="M3689 3813 c-5 -16 -12 -34 -14 -40 -2 -7 0 -13 5 -13 6 0 10 7 10
15 0 21 27 19 39 -2 14 -24 14 -4 0 36 -13 38 -26 40 -40 4z m26 -3 c3 -5 1
-10 -4 -10 -6 0 -11 5 -11 10 0 6 2 10 4 10 3 0 8 -4 11 -10z"/>
<path d="M3761 3798 l2 -43 6 35 7 35 17 -32 c24 -45 37 -41 36 10 -1 38 -2
39 -8 12 l-7 -30 -18 28 c-26 38 -36 34 -35 -15z"/>
<path d="M4476 3734 c-31 -30 -8 -69 36 -62 26 3 37 41 18 64 -16 18 -35 18
-54 -2z"/>
<path d="M5091 3658 c2 -33 3 -36 6 -14 l5 29 23 -29 24 -29 -1 45 c0 38 -1
40 -7 16 l-6 -29 -14 26 c-21 39 -31 33 -30 -15z"/>
<path d="M5180 3660 c0 -37 2 -40 28 -39 l27 0 -25 10 c-24 10 -24 11 -7 24
18 13 18 13 0 18 -15 3 -14 6 7 15 l25 11 -27 0 c-26 1 -28 -2 -28 -39z"/>
<path d="M5250 3660 c0 -22 5 -40 10 -40 6 0 10 6 10 14 0 8 7 16 15 20 8 3
15 15 15 26 0 15 -7 20 -25 20 -22 0 -25 -4 -25 -40z m40 15 c0 -8 -4 -15 -10
-15 -5 0 -10 7 -10 15 0 8 5 15 10 15 6 0 10 -7 10 -15z"/>
<path d="M5336 3676 c-3 -13 -9 -32 -12 -41 -6 -15 -4 -15 14 -4 17 10 23 10
36 0 20 -17 20 -13 1 33 -18 42 -30 46 -39 12z m21 -18 c-3 -8 -6 -5 -6 6 -1
11 2 17 5 13 3 -3 4 -12 1 -19z"/>
<path d="M5412 3663 c-2 -39 0 -43 21 -42 16 1 17 3 5 6 -11 3 -18 17 -21 41
l-4 37 -1 -42z"/>
<path d="M8244 3686 c-12 -31 0 -61 26 -63 25 -3 25 -3 3 7 -13 5 -23 18 -23
30 0 12 9 24 23 30 l22 9 -23 0 c-12 1 -25 -5 -28 -13z"/>
<path d="M8322 3660 c0 -33 2 -39 7 -21 9 35 29 37 34 4 4 -27 4 -27 6 5 1 25
-3 32 -18 32 -11 0 -22 6 -24 13 -3 6 -5 -8 -5 -33z"/>
<path d="M8682 3660 c0 -33 2 -39 7 -21 9 35 29 37 34 4 4 -27 4 -27 6 5 1 25
-3 32 -18 32 -11 0 -22 6 -24 13 -3 6 -5 -8 -5 -33z"/>
<path d="M8414 3671 c18 -7 18 -8 3 -14 -27 -10 -21 -37 8 -37 15 0 25 6 25
14 0 29 -13 46 -34 45 -20 0 -20 -1 -2 -8z m16 -31 c0 -5 -4 -10 -10 -10 -5 0
-10 5 -10 10 0 6 5 10 10 10 6 0 10 -4 10 -10z"/>
<path d="M8471 3648 c1 -30 2 -30 8 -9 9 35 29 37 34 4 4 -27 4 -27 6 5 1 28
-2 32 -24 32 -22 0 -25 -4 -24 -32z"/>
<path d="M8550 3656 c0 -13 -3 -31 -6 -39 -6 -17 19 -29 41 -21 23 9 18 34 -7
35 -13 0 -17 3 -10 6 7 2 17 13 22 24 9 16 7 19 -15 19 -20 0 -25 -5 -25 -24z
m30 4 c0 -5 -4 -10 -10 -10 -5 0 -10 5 -10 10 0 6 5 10 10 10 6 0 10 -4 10
-10z m2 -52 c-9 -9 -15 -9 -24 0 -9 9 -7 12 12 12 19 0 21 -3 12 -12z"/>
<path d="M8620 3666 c0 -8 8 -17 18 -21 16 -7 15 -8 -3 -15 -16 -7 -17 -9 -3
-9 25 -1 33 20 12 32 -17 10 -17 11 1 18 19 7 18 8 -2 8 -13 1 -23 -5 -23 -13z"/>
<path d="M8761 3634 c0 -11 3 -14 6 -6 3 7 2 16 -1 19 -3 4 -6 -2 -5 -13z"/>
<path d="M4221 3583 c2 -43 2 -45 8 -15 l6 34 18 -31 c26 -44 37 -38 36 17 -2
45 -2 45 -8 12 l-7 -35 -17 33 c-25 45 -37 40 -36 -15z"/>
<path d="M4510 3585 c0 -48 11 -56 51 -35 40 22 14 80 -35 80 -12 0 -16 -11
-16 -45z m50 0 c0 -16 -6 -25 -15 -25 -9 0 -15 9 -15 25 0 16 6 25 15 25 9 0
15 -9 15 -25z"/>
<path d="M4660 3591 c0 -22 5 -43 10 -46 6 -4 10 12 10 39 0 25 -4 46 -10 46
-5 0 -10 -18 -10 -39z"/>
<path d="M4700 3585 c0 -25 5 -45 10 -45 6 0 10 11 10 25 0 14 5 25 10 25 6 0
10 -11 10 -25 0 -14 5 -25 10 -25 6 0 10 14 10 31 0 22 -5 32 -20 36 -11 3
-20 9 -20 14 0 5 -4 9 -10 9 -5 0 -10 -20 -10 -45z"/>
<path d="M4314 3596 c-10 -26 1 -51 24 -54 12 -2 22 2 22 8 0 6 -4 9 -8 6 -4
-2 -14 -1 -22 5 -11 6 -8 9 13 9 25 0 27 2 17 20 -12 23 -38 26 -46 6z m31 -6
c3 -5 -1 -10 -10 -10 -9 0 -13 5 -10 10 3 6 8 10 10 10 2 0 7 -4 10 -10z"/>
<path d="M4381 3578 c5 -18 9 -34 9 -35 0 -2 4 -3 9 -3 5 0 12 10 16 23 l8 22
4 -22 c6 -30 21 -29 33 3 13 32 13 44 0 44 -5 0 -10 -10 -11 -22 l0 -23 -11
23 c-13 25 -28 29 -28 7 0 -8 -4 -15 -10 -15 -5 0 -10 7 -10 15 0 8 -4 15 -9
15 -6 0 -6 -12 0 -32z"/>
<path d="M4600 3596 c-24 -30 18 -74 43 -46 10 10 8 12 -5 7 -10 -3 -20 -2
-23 3 -4 6 3 10 15 10 15 0 20 5 18 17 -4 23 -31 28 -48 9z m30 -6 c0 -5 -4
-10 -10 -10 -5 0 -10 5 -10 10 0 6 5 10 10 10 6 0 10 -4 10 -10z"/>
<path d="M4770 3575 c0 -19 5 -35 10 -35 6 0 10 16 10 35 0 19 -4 35 -10 35
-5 0 -10 -16 -10 -35z"/>
<path d="M5710 3551 c0 -37 3 -41 24 -41 21 0 24 5 24 35 0 19 -4 35 -8 35 -5
0 -15 3 -24 6 -13 5 -16 -2 -16 -35z m35 9 c-3 -5 -10 -10 -16 -10 -5 0 -9 5
-9 10 0 6 7 10 16 10 8 0 12 -4 9 -10z m5 -30 c0 -5 -7 -10 -15 -10 -8 0 -15
5 -15 10 0 6 7 10 15 10 8 0 15 -4 15 -10z"/>
<path d="M5882 3552 c-2 -42 -1 -43 26 -40 24 3 27 7 29 43 l1 40 -6 -35 c-10
-51 -39 -53 -45 -3 l-4 38 -1 -43z"/>
<path d="M5960 3580 c0 -5 4 -10 9 -10 6 0 12 -15 14 -32 l4 -33 1 33 c1 22 7
32 18 32 8 0 12 5 9 10 -3 6 -17 10 -31 10 -13 0 -24 -4 -24 -10z"/>
<path d="M6046 3556 c-20 -48 -20 -49 4 -34 17 11 22 10 30 -2 18 -28 18 -4 1
35 l-18 40 -17 -39z m24 -1 c0 -8 -4 -15 -10 -15 -5 0 -7 7 -4 15 4 8 8 15 10
15 2 0 4 -7 4 -15z"/>
<path d="M6122 3550 c1 -31 2 -36 5 -17 4 27 5 28 18 10 8 -10 15 -13 15 -7 0
7 -9 22 -20 35 l-19 24 1 -45z"/>
<path d="M5789 3548 c-3 -21 -1 -38 3 -38 4 0 8 7 8 15 0 8 7 15 15 15 8 0 15
-7 15 -15 0 -8 5 -15 10 -15 6 0 10 16 10 35 0 19 -4 35 -10 35 -5 0 -10 -7
-10 -15 0 -21 -28 -19 -32 3 -3 9 -6 0 -9 -20z"/>
<path d="M6169 3550 c-7 -35 -4 -48 7 -38 3 4 4 21 2 40 l-3 33 -6 -35z"/>
<path d="M1210 3375 c0 -30 3 -35 24 -35 31 0 36 8 29 43 -4 20 -11 27 -29 27
-21 0 -24 -5 -24 -35z m40 15 c0 -5 -7 -10 -15 -10 -8 0 -15 5 -15 10 0 6 7
10 15 10 8 0 15 -4 15 -10z m0 -30 c0 -5 -7 -10 -15 -10 -8 0 -15 5 -15 10 0
6 7 10 15 10 8 0 15 -4 15 -10z"/>
<path d="M1295 3378 c-7 -18 -11 -35 -8 -38 3 -3 8 1 10 8 5 14 33 16 33 2 0
-5 4 -10 9 -10 5 0 4 15 -2 35 -13 44 -24 44 -42 3z m22 0 c-3 -8 -6 -5 -6 6
-1 11 2 17 5 13 3 -3 4 -12 1 -19z"/>
<path d="M1372 3375 c0 -22 2 -32 5 -22 2 9 13 17 23 17 10 0 21 -8 23 -17 3
-10 5 0 5 22 0 22 -2 32 -5 23 -2 -10 -13 -18 -23 -18 -10 0 -21 8 -23 18 -3
9 -5 -1 -5 -23z"/>
<path d="M1460 3375 c0 -35 20 -51 20 -17 1 16 1 16 14 0 15 -20 31 -25 19 -5
-4 6 -6 22 -4 35 2 18 -2 22 -23 22 -23 0 -26 -4 -26 -35z m40 15 c0 -5 -4
-10 -10 -10 -5 0 -10 5 -10 10 0 6 5 10 10 10 6 0 10 -4 10 -10z"/>
<path d="M1550 3384 c-13 -33 -13 -54 0 -34 8 12 13 13 30 2 23 -14 23 -14 9
27 -13 38 -26 40 -39 5z m25 -4 c3 -5 1 -10 -4 -10 -6 0 -11 5 -11 10 0 6 2
10 4 10 3 0 8 -4 11 -10z"/>
<path d="M1620 3375 c0 -19 5 -35 10 -35 6 0 10 16 10 35 0 19 -4 35 -10 35
-5 0 -10 -16 -10 -35z"/>
<path d="M1671 3373 c1 -33 2 -35 8 -13 l7 25 12 -22 c19 -34 32 -28 31 15 -1
35 -2 35 -8 8 l-6 -29 -14 26 c-20 38 -31 34 -30 -10z"/>
<path d="M8853 3365 c-83 -50 -106 -160 -50 -244 35 -52 85 -74 156 -69 70 5
116 35 142 92 72 158 -99 310 -248 221z m97 -40 c0 -9 11 -20 25 -25 14 -5 34
-23 43 -40 9 -16 23 -30 30 -30 6 0 12 -7 12 -15 0 -8 -6 -15 -12 -15 -7 0
-21 -14 -31 -31 -9 -17 -26 -33 -37 -36 -11 -3 -20 -14 -20 -24 0 -11 -7 -19
-15 -19 -8 0 -15 7 -15 15 0 9 -11 20 -25 25 -14 5 -34 23 -43 40 -9 16 -23
30 -29 30 -7 0 -13 7 -13 15 0 8 6 15 13 15 6 0 20 14 30 31 9 17 26 33 37 36
11 3 20 14 20 24 0 11 7 19 15 19 8 0 15 -7 15 -15z"/>
<path d="M8895 3260 c-37 -41 -9 -110 45 -110 15 0 35 9 45 20 37 41 9 110
-45 110 -15 0 -35 -9 -45 -20z m76 0 c30 -17 26 -77 -6 -92 -41 -18 -75 3 -75
46 0 48 37 69 81 46z"/>
<path d="M7140 3250 c0 -22 5 -40 10 -40 6 0 10 9 10 21 0 21 0 21 20 -2 10
-13 19 -19 20 -13 0 5 -6 16 -12 22 -10 10 -10 17 0 32 15 25 4 26 -14 3 -13
-17 -13 -17 -14 0 0 37 -20 15 -20 -23z"/>
<path d="M7222 3243 c2 -20 9 -29 26 -31 19 -3 22 1 21 30 -2 30 -2 31 -6 6
-5 -35 -23 -37 -23 -3 0 14 -5 25 -11 25 -6 0 -9 -12 -7 -27z"/>
<path d="M7300 3240 c0 -16 5 -30 10 -30 6 0 10 11 10 25 0 34 18 32 23 -2 4
-26 4 -26 6 5 1 28 -2 32 -24 32 -21 0 -25 -5 -25 -30z"/>
<path d="M7380 3240 c0 -16 5 -30 10 -30 6 0 10 11 10 25 0 34 18 32 23 -2 l4
-28 2 28 c0 16 7 27 15 27 8 0 17 -12 19 -27 4 -26 4 -26 6 5 1 32 0 32 -44
32 -43 0 -45 -1 -45 -30z"/>
<path d="M7490 3240 c0 -16 5 -30 10 -30 6 0 10 14 10 30 0 17 -4 30 -10 30
-5 0 -10 -13 -10 -30z"/>
<path d="M7530 3240 c0 -16 5 -30 10 -30 6 0 10 11 10 25 0 14 5 25 10 25 6 0
10 -12 10 -27 0 -20 3 -24 11 -16 18 18 1 53 -27 53 -20 0 -24 -5 -24 -30z"/>
<path d="M7612 3230 c-1 -36 2 -40 24 -40 15 0 24 6 24 15 0 8 -7 15 -17 15
-15 0 -15 1 0 18 23 25 21 32 -7 32 -21 0 -24 -5 -24 -40z m28 20 c0 -5 -4
-10 -10 -10 -5 0 -10 5 -10 10 0 6 5 10 10 10 6 0 10 -4 10 -10z m7 -46 c-3
-3 -12 -4 -19 -1 -8 3 -5 6 6 6 11 1 17 -2 13 -5z"/>
<path d="M2007 3183 c-15 -39 -13 -59 3 -33 8 12 13 13 30 2 11 -7 20 -10 20
-7 0 10 -29 75 -33 75 -3 0 -12 -17 -20 -37z m27 2 c3 -8 1 -15 -4 -15 -6 0
-10 7 -10 15 0 8 2 15 4 15 2 0 6 -7 10 -15z"/>
<path d="M2167 3183 c-15 -39 -13 -59 3 -33 8 12 13 13 30 2 11 -7 20 -10 20
-8 0 8 -30 76 -34 76 -2 0 -11 -17 -19 -37z m27 2 c3 -8 1 -15 -4 -15 -6 0
-10 7 -10 15 0 8 2 15 4 15 2 0 6 -7 10 -15z"/>
<path d="M1512 3177 c-2 -36 0 -38 26 -35 23 3 27 8 29 38 1 34 1 34 -5 5 -10
-43 -40 -45 -45 -3 -4 33 -4 33 -5 -5z"/>
<path d="M1600 3173 c0 -43 5 -41 13 5 4 18 2 32 -3 32 -6 0 -10 -16 -10 -37z"/>
<path d="M1652 3186 c-2 -28 -3 -29 -17 -10 -8 10 -15 14 -15 8 0 -16 27 -50
35 -42 3 3 5 21 2 40 -4 32 -4 32 -5 4z"/>
<path d="M1693 3175 c0 -22 2 -30 4 -17 2 12 2 30 0 40 -3 9 -5 -1 -4 -23z"/>
<path d="M1733 3203 c11 -3 18 -15 18 -36 l2 -32 4 30 c3 16 10 33 16 37 7 4
-4 7 -23 7 -19 -1 -27 -3 -17 -6z"/>
<path d="M1800 3175 c0 -32 3 -35 28 -34 16 1 20 3 10 6 -10 2 -18 8 -18 13 0
5 8 11 18 13 16 4 16 5 0 6 -10 0 -18 5 -18 10 0 5 8 12 18 14 10 3 6 5 -10 6
-25 1 -28 -2 -28 -34z"/>
<path d="M1870 3175 c0 -30 3 -35 24 -35 30 0 50 23 41 50 -4 14 -15 20 -36
20 -27 0 -29 -3 -29 -35z m50 0 c0 -16 -6 -25 -15 -25 -9 0 -15 9 -15 25 0 16
6 25 15 25 9 0 15 -9 15 -25z"/>
<path d="M2081 3173 c1 -21 3 -30 6 -20 6 21 12 22 27 1 10 -13 12 -10 13 20
1 32 -2 36 -23 36 -21 0 -24 -4 -23 -37z m39 17 c0 -5 -7 -10 -15 -10 -8 0
-15 5 -15 10 0 6 7 10 15 10 8 0 15 -4 15 -10z"/>
<path d="M2240 3175 c0 -30 3 -35 24 -35 31 0 36 8 29 43 -4 20 -11 27 -29 27
-21 0 -24 -5 -24 -35z m40 15 c0 -5 -7 -10 -15 -10 -8 0 -15 5 -15 10 0 6 7
10 15 10 8 0 15 -4 15 -10z m0 -30 c0 -5 -7 -10 -15 -10 -8 0 -15 5 -15 10 0
6 7 10 15 10 8 0 15 -4 15 -10z"/>
<path d="M380 3141 c0 -10 7 -21 15 -25 24 -9 18 -29 -6 -23 -16 4 -19 3 -11
-5 14 -14 42 -3 42 17 0 9 -7 18 -15 21 -20 8 -19 21 3 27 13 4 11 5 -5 6 -16
1 -23 -5 -23 -18z"/>
<path d="M454 3125 c-18 -45 -18 -48 5 -33 15 9 23 9 35 -1 9 -8 16 -11 16 -7
0 13 -29 76 -35 76 -3 0 -13 -16 -21 -35z"/>
<path d="M533 3125 c2 -36 5 -40 27 -40 22 0 25 4 27 40 l1 40 -6 -35 c-4 -22
-13 -35 -22 -35 -9 0 -18 13 -22 35 l-6 35 1 -40z"/>
<path d="M620 3121 c0 -44 12 -51 44 -28 28 20 18 61 -16 65 -27 3 -28 1 -28
-37z m46 14 c6 -16 -12 -45 -27 -45 -5 0 -9 14 -9 30 0 32 26 43 36 15z"/>
<path d="M713 3120 c0 -25 2 -35 4 -22 2 12 2 32 0 45 -2 12 -4 2 -4 -23z"/>
<path d="M794 3125 c-18 -45 -18 -48 5 -33 15 9 23 9 35 -1 9 -8 16 -11 16 -7
0 13 -29 76 -35 76 -3 0 -13 -16 -21 -35z"/>
<path d="M871 3118 c1 -24 3 -35 6 -25 5 21 22 22 29 2 4 -8 11 -15 16 -15 7
0 6 5 -1 14 -6 7 -10 24 -9 37 2 18 -2 25 -19 27 -21 3 -23 0 -22 -40z m33 23
c3 -5 -1 -11 -9 -15 -9 -3 -15 0 -15 9 0 16 16 20 24 6z"/>
<path d="M956 3136 c-3 -13 -9 -32 -12 -41 -6 -15 -4 -15 14 -4 17 10 23 10
36 0 20 -17 20 -13 1 33 -18 42 -30 46 -39 12z"/>
<path d="M1030 3119 c0 -36 2 -40 23 -37 18 2 22 10 24 41 2 33 0 37 -22 37
-22 0 -25 -4 -25 -41z m40 21 c0 -5 -7 -10 -15 -10 -8 0 -15 5 -15 10 0 6 7
10 15 10 8 0 15 -4 15 -10z m-2 -32 c-6 -18 -28 -21 -28 -4 0 9 7 16 16 16 9
0 14 -5 12 -12z"/>
<path d="M1113 3120 c0 -25 2 -35 4 -22 2 12 2 32 0 45 -2 12 -4 2 -4 -23z"/>
<path d="M1155 3124 c-19 -46 -19 -47 4 -32 15 9 23 9 37 -3 16 -13 17 -12 11
4 -4 11 -10 30 -13 43 -9 34 -21 30 -39 -12z"/>
<path d="M1612 3043 c3 -32 7 -38 28 -41 23 -2 24 -1 8 11 -10 8 -18 17 -18
20 0 3 8 8 18 10 16 4 16 5 0 6 -10 0 -18 5 -18 10 0 5 8 12 18 14 10 3 6 5
-11 6 -27 1 -28 -1 -25 -36z"/>
<path d="M1691 3038 c1 -39 2 -40 8 -13 l7 30 8 -30 8 -30 13 25 c10 18 14 20
15 8 0 -9 5 -20 10 -23 6 -4 10 10 10 34 0 48 -13 53 -34 14 l-14 -28 -7 28
c-11 41 -25 32 -24 -15z"/>
<path d="M1803 3040 c0 -25 2 -35 4 -22 2 12 2 32 0 45 -2 12 -4 2 -4 -23z"/>
<path d="M1841 3038 c1 -24 4 -33 6 -20 2 12 7 22 10 22 2 0 14 -10 25 -22 11
-13 16 -16 12 -8 -4 8 -7 27 -6 42 2 24 -1 28 -23 28 -23 0 -25 -3 -24 -42z
m39 22 c0 -5 -7 -10 -15 -10 -8 0 -15 5 -15 10 0 6 7 10 15 10 8 0 15 -4 15
-10z"/>
<path d="M1924 3044 c-8 -20 -13 -39 -10 -42 3 -2 8 3 12 12 8 21 23 20 41 -1
14 -17 14 -17 9 0 -3 11 -9 30 -12 43 -9 34 -23 30 -40 -12z"/>
<path d="M1998 3073 c6 -2 12 -18 12 -33 0 -16 5 -32 10 -35 6 -4 10 8 10 29
0 19 6 37 13 39 6 3 -4 5 -23 5 -19 0 -29 -2 -22 -5z"/>
<path d="M2070 3040 c0 -33 3 -40 20 -40 11 0 20 5 20 10 0 6 -7 10 -15 10
-21 0 -19 18 3 23 16 4 16 5 0 6 -10 0 -18 5 -18 10 0 5 8 12 18 14 13 4 11 5
-5 6 -20 1 -23 -4 -23 -39z"/>
<path d="M2140 3065 c0 -9 7 -18 15 -21 8 -4 15 -13 15 -21 0 -9 -6 -13 -15
-9 -8 3 -15 1 -15 -4 0 -15 26 -12 40 4 9 12 7 17 -9 28 -26 16 -27 25 -3 31
13 4 11 5 -5 6 -15 1 -23 -5 -23 -14z"/>
<path d="M5550 3020 c0 -39 1 -41 28 -38 24 3 27 7 27 38 0 31 -3 35 -27 38
-27 3 -28 1 -28 -38z m40 20 c0 -5 -4 -10 -10 -10 -5 0 -10 5 -10 10 0 6 5 10
10 10 6 0 10 -4 10 -10z m2 -35 c0 -5 -5 -11 -11 -13 -6 -2 -11 4 -11 13 0 9
5 15 11 13 6 -2 11 -8 11 -13z"/>
<path d="M5640 3024 c-7 -19 -9 -38 -6 -41 3 -4 6 -1 6 5 0 7 9 12 20 12 11 0
20 -5 20 -12 0 -6 3 -9 6 -5 8 8 -15 77 -26 77 -5 0 -14 -16 -20 -36z m30 -4
c0 -5 -4 -10 -10 -10 -5 0 -10 5 -10 10 0 6 5 10 10 10 6 0 10 -4 10 -10z"/>
<path d="M5710 3021 c0 -44 19 -58 22 -16 0 14 1 30 2 37 1 6 -5 13 -11 16 -9
2 -13 -9 -13 -37z"/>
<path d="M5772 3031 c-2 -33 -3 -34 -17 -15 -8 10 -15 14 -15 8 0 -16 27 -50
35 -42 3 3 5 23 2 44 l-4 39 -1 -34z"/>
<path d="M5810 3040 c-15 -28 4 -60 35 -60 18 0 25 5 25 20 0 12 -7 20 -17 20
-15 0 -16 -2 -3 -10 18 -11 6 -25 -15 -16 -25 9 -15 49 15 57 l25 7 -27 1
c-18 1 -31 -6 -38 -19z"/>
<path d="M5902 3023 c-2 -39 0 -43 21 -42 16 1 17 3 5 6 -11 3 -18 17 -21 41
l-4 37 -1 -42z"/>
<path d="M5976 3036 c-3 -13 -9 -32 -12 -41 -6 -15 -4 -15 15 -3 18 11 23 11
31 -2 16 -26 18 -6 3 33 -18 43 -28 47 -37 13z m24 -11 c0 -8 -4 -15 -10 -15
-5 0 -7 7 -4 15 4 8 8 15 10 15 2 0 4 -7 4 -15z"/>
<path d="M6050 3020 c0 -37 2 -41 21 -38 30 4 47 33 33 56 -6 9 -21 18 -33 20
-19 3 -21 -1 -21 -38z m40 15 c10 -12 10 -18 0 -30 -19 -23 -30 -18 -30 15 0
33 11 38 30 15z"/>
<path d="M6140 3020 c0 -35 3 -40 23 -39 16 1 18 2 5 6 -10 2 -18 11 -18 18 0
7 8 16 18 18 16 4 16 5 0 6 -10 0 -18 5 -18 10 0 5 8 12 18 14 13 4 11 5 -5 6
-20 1 -23 -4 -23 -39z"/>
<path d="M6204 3048 c-4 -6 2 -19 14 -29 28 -22 27 -27 0 -32 l-23 -4 23 -2
c28 -1 42 28 19 41 -22 12 -22 25 1 31 13 4 12 5 -5 6 -12 0 -25 -4 -29 -11z"/>
<path d="M6283 3020 c0 -25 2 -35 4 -22 2 12 11 22 19 22 8 0 19 -10 24 -22 7
-19 9 -14 8 22 0 25 -2 37 -5 28 -2 -10 -13 -18 -23 -18 -10 0 -21 8 -23 18
-3 9 -5 -3 -4 -28z"/>
<path d="M8431 2898 c1 -40 2 -41 9 -13 l7 30 7 -27 c5 -16 12 -28 17 -28 5 0
12 12 16 28 l7 27 7 -30 c6 -27 7 -26 8 13 1 46 -13 57 -23 17 -4 -14 -10 -25
-15 -25 -5 0 -12 11 -15 25 -10 40 -26 29 -25 -17z"/>
<path d="M8547 2900 c-8 -22 -11 -40 -6 -40 5 0 9 5 9 10 0 6 9 10 20 10 11 0
20 -5 20 -12 0 -6 2 -9 5 -7 6 7 -17 79 -25 79 -4 0 -14 -18 -23 -40z m33 0
c0 -5 -4 -10 -10 -10 -5 0 -10 5 -10 10 0 6 5 10 10 10 6 0 10 -4 10 -10z"/>
<path d="M8630 2926 c-6 -8 -10 -25 -8 -38 2 -18 10 -23 33 -25 21 -1 23 0 7
4 -13 2 -26 11 -29 19 -7 20 15 44 34 37 11 -4 14 -2 9 5 -10 16 -31 15 -46
-2z"/>
<path d="M8707 2900 c-8 -22 -12 -40 -7 -40 5 0 10 6 13 13 3 9 9 9 27 -1 20
-13 22 -12 16 3 -3 9 -9 28 -12 41 -9 34 -19 30 -37 -16z m28 0 c3 -5 1 -10
-4 -10 -6 0 -11 5 -11 10 0 6 2 10 4 10 3 0 8 -4 11 -10z"/>
<path d="M8783 2905 c2 -36 5 -40 30 -43 26 -3 27 -2 25 40 l-1 43 -4 -38 c-6
-50 -35 -48 -45 3 l-6 35 1 -40z"/>
<path d="M4330 2814 c0 -34 4 -53 10 -49 6 3 10 28 10 56 0 27 -4 49 -10 49
-5 0 -10 -25 -10 -56z"/>
<path d="M4490 2813 c0 -59 16 -65 22 -8 l3 30 22 -37 c12 -21 27 -38 33 -38
6 0 10 24 10 55 0 59 -17 76 -22 23 l-3 -33 -18 33 c-28 52 -47 42 -47 -25z"/>
<path d="M4730 2814 c0 -54 1 -56 23 -50 12 3 28 6 35 6 7 0 17 12 23 26 14
38 -11 74 -51 74 -30 0 -30 -1 -30 -56z m58 7 c3 -21 -11 -40 -30 -41 -5 0 -8
16 -8 36 0 28 3 35 18 32 9 -2 19 -14 20 -27z"/>
<path d="M4952 2818 c4 -67 22 -65 26 2 2 40 0 50 -13 50 -13 0 -15 -10 -13
-52z"/>
<path d="M5126 2823 c-19 -54 -19 -63 -6 -63 6 0 10 7 10 15 0 21 40 19 56 -2
13 -17 13 -17 14 -1 0 29 -31 98 -45 98 -7 0 -20 -21 -29 -47z m44 -5 c0 -5
-6 -8 -14 -8 -9 0 -12 7 -9 21 4 16 8 17 14 7 5 -7 9 -16 9 -20z"/>
<path d="M6401 2768 c1 -35 2 -38 8 -18 l7 25 7 -25 c7 -24 8 -24 22 -6 13 17
15 18 15 3 0 -9 5 -17 10 -17 11 0 14 63 3 74 -4 4 -15 -8 -24 -25 l-16 -32
-11 32 c-15 43 -22 39 -21 -11z"/>
<path d="M6505 2795 c4 -11 10 -30 12 -42 3 -13 9 -23 13 -23 4 0 10 10 13 23
2 12 8 31 12 42 7 20 6 20 -9 1 -16 -20 -16 -20 -32 0 -15 19 -16 19 -9 -1z"/>
<path d="M6590 2774 c-7 -19 -9 -38 -6 -41 3 -4 6 -1 6 5 0 16 37 15 43 0 4
-10 6 -10 6 0 1 13 -26 72 -33 72 -3 0 -10 -16 -16 -36z m30 -4 c0 -5 -4 -10
-10 -10 -5 0 -10 5 -10 10 0 6 5 10 10 10 6 0 10 -4 10 -10z"/>
<path d="M6667 2804 c-4 -4 -6 -23 -6 -43 1 -35 1 -35 8 -6 l6 29 18 -27 c24
-37 37 -34 36 11 -1 36 -2 36 -8 7 l-6 -30 -21 33 c-11 18 -23 29 -27 26z"/>
<path d="M6761 2770 c1 -35 3 -40 8 -20 7 25 7 25 13 3 7 -27 25 -30 31 -5 4
16 5 16 6 0 2 -33 21 -18 21 15 0 48 -11 53 -32 15 -9 -18 -17 -26 -18 -17 0
8 -7 24 -15 35 -13 18 -14 16 -14 -26z"/>
<path d="M6876 2775 c-20 -47 -20 -48 5 -33 17 10 23 10 26 1 11 -29 21 -10
11 20 -17 50 -25 53 -42 12z m21 -7 c-3 -8 -6 -5 -6 6 -1 11 2 17 5 13 3 -3 4
-12 1 -19z"/>
<path d="M6951 2769 c1 -24 3 -36 6 -26 6 21 12 22 27 1 10 -13 12 -10 13 20
1 20 -3 36 -7 36 -5 0 -15 3 -24 6 -13 5 -16 -2 -15 -37z m34 11 c-3 -5 -10
-10 -16 -10 -5 0 -9 5 -9 10 0 6 7 10 16 10 8 0 12 -4 9 -10z"/>
<path d="M1924 2715 c-8 -34 15 -60 45 -50 18 5 22 13 19 38 -2 26 -8 33 -30
35 -22 3 -29 -2 -34 -23z m51 -15 c0 -36 -29 -33 -33 3 -3 23 0 28 15 25 12
-2 18 -12 18 -28z"/>
<path d="M2021 2698 c2 -35 3 -37 6 -13 l5 30 13 -30 13 -30 15 35 15 35 5
-35 c4 -33 4 -33 5 8 2 48 -9 54 -28 15 l-13 -28 -9 28 c-14 41 -28 33 -27
-15z"/>
<path d="M2135 2704 c-19 -46 -19 -47 4 -32 15 9 23 9 37 -3 16 -13 17 -12 11
4 -4 11 -10 30 -13 43 -9 34 -21 30 -39 -12z"/>
<path d="M2211 2698 l2 -43 6 35 c5 29 8 31 14 16 4 -10 10 -16 13 -13 8 7
-14 47 -26 47 -6 0 -9 -19 -9 -42z"/>
<path d="M2259 2715 c-1 -14 -2 -30 -3 -37 -1 -6 5 -13 12 -15 8 -3 12 8 12
36 0 44 -19 58 -21 16z"/>
<path d="M167 2696 c-3 -8 1 -20 9 -26 22 -19 18 -43 -6 -37 -11 3 -20 1 -20
-4 0 -5 11 -9 24 -9 29 0 43 30 22 46 -23 16 -20 32 7 37 20 4 19 4 -4 6 -15
0 -29 -5 -32 -13z"/>
<path d="M8179 2694 c-7 -8 -14 -32 -16 -52 -2 -20 -9 -43 -16 -52 -10 -13
-10 -13 4 -2 10 7 20 28 23 47 4 19 10 35 14 35 4 0 8 9 9 20 2 24 -1 25 -18
4z"/>
<path d="M7781 2686 c-7 -8 -11 -27 -9 -43 2 -22 8 -28 28 -28 18 0 26 6 28
23 3 16 -2 22 -15 22 -15 0 -16 -2 -3 -10 12 -7 12 -12 2 -22 -17 -17 -35 3
-30 33 2 15 12 26 28 30 22 6 22 7 4 8 -12 1 -27 -5 -33 -13z"/>
<path d="M7947 2693 c-3 -4 -8 -26 -11 -48 l-6 -40 15 44 c13 41 14 64 2 44z"/>
<path d="M7986 2683 c-2 -10 -8 -34 -12 -53 -3 -19 -12 -39 -18 -43 -7 -6 -6
-7 4 -5 8 3 19 22 25 44 5 21 14 42 20 46 6 5 6 8 0 8 -5 0 -3 5 5 10 13 8 13
10 -2 10 -9 0 -19 -8 -22 -17z"/>
<path d="M8083 2688 c-17 -21 -21 -42 -11 -60 21 -41 73 -5 66 45 -3 25 -39
35 -55 15z m43 -12 c7 -19 -14 -58 -29 -53 -14 4 -21 32 -13 53 7 18 35 18 42
0z"/>
<path d="M241 2676 c-17 -21 -10 -50 14 -54 20 -4 20 -3 1 11 -18 13 -18 14 4
20 12 3 20 11 18 18 -6 19 -24 21 -37 5z m29 -6 c0 -5 -4 -10 -10 -10 -5 0
-10 5 -10 10 0 6 5 10 10 10 6 0 10 -4 10 -10z"/>
<path d="M311 2677 c-15 -15 -14 -57 2 -57 21 0 34 14 39 41 3 18 0 25 -12 26
-10 1 -23 -4 -29 -10z m27 -19 c-4 -27 -28 -36 -28 -10 0 20 8 32 22 32 5 0 8
-10 6 -22z"/>
<path d="M7857 2653 c-6 -34 -1 -43 23 -43 20 0 36 38 27 62 -3 7 -6 3 -6 -8
-1 -12 -8 -28 -17 -35 -15 -13 -17 -11 -12 19 6 39 -8 43 -15 5z"/>
<path d="M7790 2550 c0 -5 4 -10 9 -10 5 0 5 -15 1 -35 -4 -20 -4 -35 1 -35 5
0 9 11 9 24 0 14 7 31 15 40 21 20 19 26 -10 26 -14 0 -25 -4 -25 -10z"/>
<path d="M8017 2553 c-2 -5 -7 -26 -11 -48 -5 -31 -4 -36 4 -25 9 11 13 12 17
3 2 -7 9 -13 15 -13 6 0 3 11 -6 25 -10 15 -14 34 -11 45 6 19 1 28 -8 13z"/>
<path d="M3974 2515 c-9 -23 3 -45 25 -45 11 0 22 4 25 8 3 5 -5 8 -17 8 -13
-1 -22 5 -22 14 0 9 9 15 22 14 12 0 20 3 17 8 -9 14 -44 9 -50 -7z"/>
<path d="M7857 2523 c-4 -3 -7 -17 -7 -30 0 -20 5 -24 23 -21 30 4 39 58 9 58
-10 0 -22 -3 -25 -7z m33 -23 c0 -11 -7 -20 -15 -20 -15 0 -21 21 -8 33 12 13
23 7 23 -13z"/>
<path d="M7927 2503 c-7 -37 0 -42 12 -9 14 34 35 35 27 0 -5 -17 -3 -23 4
-19 5 3 10 17 10 31 0 19 -5 24 -24 24 -18 0 -25 -7 -29 -27z"/>
<path d="M8076 2515 c-3 -9 -6 -24 -5 -33 0 -9 5 -4 10 12 9 32 6 48 -5 21z"/>
<path d="M8116 2504 c-4 -15 -5 -28 -3 -31 3 -2 7 8 11 22 9 36 38 34 31 -2
-4 -23 -4 -25 4 -8 16 33 12 45 -13 45 -17 0 -26 -7 -30 -26z"/>
<path d="M7382 2453 c-2 -41 -1 -43 26 -42 22 1 23 2 5 6 -17 3 -23 13 -26 41
l-4 37 -1 -42z"/>
<path d="M7457 2453 c-15 -39 -13 -59 3 -33 8 13 13 13 31 2 19 -12 21 -12 15
3 -3 9 -9 28 -12 41 -9 34 -19 30 -37 -13z m27 2 c3 -8 1 -15 -4 -15 -6 0 -10
7 -10 15 0 8 2 15 4 15 2 0 6 -7 10 -15z"/>
<path d="M7542 2481 c-8 -5 -12 -21 -10 -37 3 -25 7 -29 33 -29 24 0 31 5 33
23 6 39 -25 63 -56 43z m38 -16 c15 -18 6 -45 -15 -45 -18 0 -30 24 -21 45 7
19 20 19 36 0z"/>
<path d="M7627 2483 c-13 -13 -7 -32 13 -38 27 -9 25 -25 -2 -26 -19 -1 -20
-2 -4 -6 10 -3 23 0 30 7 8 9 5 16 -13 31 l-23 19 23 9 c22 9 23 10 3 10 -11
1 -24 -2 -27 -6z"/>
<path d="M3811 2428 c1 -39 2 -40 8 -13 l7 30 7 -28 c8 -28 27 -29 27 -1 0 8
-4 13 -9 10 -5 -3 -12 5 -15 19 -10 40 -26 29 -25 -17z"/>
<path d="M3865 2460 c-8 -12 5 -60 16 -60 5 0 9 16 9 35 0 33 -12 46 -25 25z"/>
<path d="M4061 2438 c-1 -34 2 -38 25 -38 21 0 25 4 22 23 -2 12 -10 22 -18
22 -8 0 -18 7 -22 15 -4 9 -7 -1 -7 -22z m30 -21 c-13 -13 -26 -3 -16 12 3 6
11 8 17 5 6 -4 6 -10 -1 -17z"/>
<path d="M3902 2423 c2 -21 9 -28 26 -29 18 -1 22 4 21 30 l0 31 -11 -25 c-11
-25 -11 -25 -15 -2 -6 32 -25 27 -21 -5z"/>
<path d="M3960 2426 c0 -14 5 -26 10 -26 6 0 10 9 10 20 0 31 20 24 21 -7 1
-21 2 -23 6 -8 8 31 23 42 23 17 0 -12 5 -22 11 -22 6 0 9 10 7 23 -2 18 -10
23 -45 25 -40 3 -43 1 -43 -22z"/>
<path d="M4138 2444 c10 -5 9 -9 -5 -19 -15 -12 -16 -16 -4 -27 12 -11 13 -10
8 5 -4 9 -2 17 3 17 6 0 10 -4 10 -10 0 -5 5 -10 11 -10 20 0 5 45 -16 47 -11
2 -14 0 -7 -3z"/>
<path d="M4182 2425 c0 -16 2 -22 5 -12 2 9 2 23 0 30 -3 6 -5 -1 -5 -18z"/>
<path d="M7601 2286 c-2 -14 22 -76 29 -76 9 0 33 70 26 77 -3 3 -8 -6 -12
-21 -8 -33 -17 -33 -31 2 -6 15 -11 23 -12 18z"/>
<path d="M7683 2250 c0 -25 2 -35 4 -22 2 12 2 32 0 45 -2 12 -4 2 -4 -23z"/>
<path d="M7720 2250 c0 -37 2 -40 28 -39 16 1 20 3 10 6 -10 2 -18 11 -18 18
0 7 8 16 18 18 16 4 16 5 0 6 -10 0 -18 5 -18 10 0 5 8 12 18 14 10 3 6 5 -10
6 -26 1 -28 -2 -28 -39z"/>
<path d="M7797 2282 c6 -4 13 -23 16 -42 l4 -35 1 37 c2 25 7 38 20 41 9 3 1
5 -18 6 -19 0 -30 -3 -23 -7z"/>
<path d="M7872 2250 c0 -40 1 -42 7 -15 l8 30 13 -27 c19 -40 30 -34 29 15 -2
32 -3 35 -6 13 l-5 -29 -23 29 -24 29 1 -45z"/>
<path d="M7964 2255 c-18 -45 -18 -48 5 -33 15 9 23 9 35 -1 9 -8 16 -11 16
-7 0 13 -29 76 -35 76 -3 0 -13 -16 -21 -35z"/>
<path d="M8041 2248 c2 -35 3 -37 6 -13 l5 30 13 -30 13 -30 15 35 15 35 5
-35 c4 -33 4 -33 5 8 2 48 -9 54 -28 15 l-13 -28 -9 28 c-14 41 -28 33 -27
-15z"/>
<path d="M8932 2200 c0 -14 2 -19 5 -12 2 6 2 18 0 25 -3 6 -5 1 -5 -13z"/>
<path d="M8758 2203 c-10 -2 -18 -8 -18 -13 0 -10 38 -1 46 11 5 9 1 10 -28 2z"/>
<path d="M8695 2180 c-3 -5 -2 -10 4 -10 5 0 13 5 16 10 3 6 2 10 -4 10 -5 0
-13 -4 -16 -10z"/>
<path d="M8965 2170 c-3 -5 -1 -10 4 -10 6 0 11 5 11 10 0 6 -2 10 -4 10 -3 0
-8 -4 -11 -10z"/>
<path d="M947 2134 l18 -41 12 35 c7 20 10 38 8 40 -2 2 -6 -6 -10 -17 l-6
-21 -20 22 c-18 23 -18 23 -2 -18z"/>
<path d="M1020 2130 c0 -35 3 -40 23 -39 16 1 18 2 5 6 -10 2 -18 8 -18 13 0
5 8 11 18 13 16 4 16 5 0 6 -10 0 -18 7 -18 15 0 8 8 17 18 19 13 4 11 5 -5 6
-20 1 -23 -4 -23 -39z"/>
<path d="M1091 2128 c1 -37 2 -39 9 -18 5 16 8 19 9 8 2 -29 20 -30 33 -2 l13
28 6 -30 c6 -26 7 -24 8 14 1 49 -11 55 -29 11 l-13 -31 -13 31 c-18 42 -24
39 -23 -11z"/>
<path d="M1200 2130 c0 -35 3 -40 23 -39 16 1 18 2 5 6 -10 2 -18 8 -18 13 0
5 8 11 18 13 16 4 16 5 0 6 -10 0 -18 7 -18 15 0 8 8 17 18 19 13 4 11 5 -5 6
-20 1 -23 -4 -23 -39z"/>
<path d="M1271 2128 c1 -40 2 -41 8 -13 l8 30 13 -27 c19 -40 30 -34 29 15 -1
39 -2 40 -8 12 l-8 -30 -13 28 c-19 39 -30 33 -29 -15z"/>
<path d="M8447 2163 c-4 -3 -7 -11 -7 -17 0 -6 5 -5 12 2 6 6 9 14 7 17 -3 3
-9 2 -12 -2z"/>
<path d="M8258 2138 c-10 -10 -14 -18 -9 -18 10 0 36 29 30 34 -2 1 -12 -6
-21 -16z"/>
<path d="M8325 2149 c-11 -17 0 -20 21 -4 17 13 17 14 2 15 -9 0 -20 -5 -23
-11z"/>
<path d="M9005 2149 c-11 -17 0 -20 21 -4 17 13 17 14 2 15 -9 0 -20 -5 -23
-11z"/>
<path d="M8638 2093 c-16 -31 -26 -58 -24 -61 6 -6 58 98 54 108 -2 5 -15 -17
-30 -47z"/>
<path d="M8820 2139 c0 -5 5 -7 10 -4 6 3 10 8 10 11 0 2 -4 4 -10 4 -5 0 -10
-5 -10 -11z"/>
<path d="M8886 2134 c-10 -25 1 -29 14 -5 6 12 7 21 1 21 -5 0 -12 -7 -15 -16z"/>
<path d="M8477 2115 c-4 -8 -13 -15 -22 -15 -8 0 -15 -5 -15 -10 0 -7 6 -7 19
0 22 11 36 29 28 36 -2 3 -7 -2 -10 -11z"/>
<path d="M8551 2114 c0 -11 3 -14 6 -6 3 7 2 16 -1 19 -3 4 -6 -2 -5 -13z"/>
<path d="M171 2079 c1 -24 3 -36 6 -26 6 21 12 22 27 1 10 -13 12 -10 13 20 1
20 -3 36 -7 36 -5 0 -15 3 -24 6 -13 5 -16 -2 -15 -37z m39 11 c0 -5 -7 -10
-15 -10 -8 0 -15 5 -15 10 0 6 7 10 15 10 8 0 15 -4 15 -10z"/>
<path d="M250 2080 c0 -35 3 -40 23 -39 16 1 18 2 5 6 -10 2 -18 8 -18 13 0 5
8 11 18 13 16 4 16 5 0 6 -22 1 -24 21 -3 21 8 0 15 5 15 10 0 6 -9 10 -20 10
-17 0 -20 -7 -20 -40z"/>
<path d="M330 2094 c-6 -16 -13 -35 -15 -41 -2 -7 0 -13 5 -13 6 0 10 5 10 10
0 6 7 10 15 10 8 0 15 -4 15 -10 0 -5 4 -10 9 -10 11 0 -5 58 -20 74 -5 5 -13
-3 -19 -20z m17 -16 c-3 -8 -6 -5 -6 6 -1 11 2 17 5 13 3 -3 4 -12 1 -19z"/>
<path d="M8345 2110 c-3 -6 1 -7 9 -4 18 7 21 14 7 14 -6 0 -13 -4 -16 -10z"/>
<path d="M8517 2101 c-4 -17 -3 -21 5 -13 5 5 8 16 6 23 -3 8 -7 3 -11 -10z"/>
<path d="M8811 2104 c0 -11 3 -14 6 -6 3 7 2 16 -1 19 -3 4 -6 -2 -5 -13z"/>
<path d="M9025 2110 c-3 -6 1 -7 9 -4 18 7 21 14 7 14 -6 0 -13 -4 -16 -10z"/>
<path d="M8286 2085 c-3 -8 -1 -15 4 -15 6 0 10 7 10 15 0 8 -2 15 -4 15 -2 0
-6 -7 -10 -15z"/>
<path d="M8957 2080 c-3 -11 -1 -20 4 -20 5 0 9 9 9 20 0 11 -2 20 -4 20 -2 0
-6 -9 -9 -20z"/>
<path d="M6910 2080 c0 -5 4 -10 9 -10 6 0 12 -15 14 -32 l4 -33 1 33 c1 17 7
32 12 32 6 0 10 5 10 10 0 6 -11 10 -25 10 -14 0 -25 -4 -25 -10z"/>
<path d="M7090 2064 c-6 -16 -13 -35 -15 -41 -2 -7 0 -13 5 -13 6 0 10 5 10
10 0 6 7 10 15 10 8 0 15 -4 15 -10 0 -5 4 -10 9 -10 11 0 -5 58 -20 74 -5 5
-13 -3 -19 -20z m17 -16 c-3 -8 -6 -5 -6 6 -1 11 2 17 5 13 3 -3 4 -12 1 -19z"/>
<path d="M7163 2050 c0 -25 2 -35 4 -22 2 12 2 32 0 45 -2 12 -4 2 -4 -23z"/>
<path d="M7277 2050 c-8 -22 -12 -40 -7 -40 5 0 10 6 13 13 3 9 9 9 26 -1 11
-7 21 -10 21 -7 0 10 -29 75 -33 75 -2 0 -11 -18 -20 -40z m28 0 c3 -5 1 -10
-4 -10 -6 0 -11 5 -11 10 0 6 2 10 4 10 3 0 8 -4 11 -10z"/>
<path d="M7450 2051 c0 -37 2 -41 25 -41 18 0 26 7 31 26 7 28 0 38 -33 49
-21 6 -23 3 -23 -34z m43 7 c6 -19 -3 -38 -19 -38 -8 0 -14 10 -14 25 0 26 25
35 33 13z"/>
<path d="M8732 2080 c-18 -4 -36 -11 -40 -15 -10 -11 71 5 83 16 10 10 4 10
-43 -1z"/>
<path d="M8910 2080 c-13 -8 -13 -10 2 -10 9 0 20 5 23 10 8 13 -5 13 -25 0z"/>
<path d="M6992 2045 c0 -22 2 -32 5 -22 5 21 33 23 33 2 0 -8 5 -15 10 -15 6
0 10 16 10 35 0 19 -4 35 -10 35 -5 0 -10 -7 -10 -15 0 -21 -28 -19 -33 3 -3
9 -5 -1 -5 -23z"/>
<path d="M7202 2048 c-2 -35 0 -38 26 -37 22 1 23 2 5 6 -16 3 -23 13 -26 36
-4 31 -4 31 -5 -5z"/>
<path d="M7351 2043 c1 -36 2 -37 8 -8 l6 29 18 -27 c24 -37 37 -34 36 11 -1
35 -2 36 -8 7 l-6 -29 -18 27 c-24 37 -37 34 -36 -10z"/>
<path d="M8358 2073 c7 -3 16 -2 19 1 4 3 -2 6 -13 5 -11 0 -14 -3 -6 -6z"/>
<path d="M9038 2073 c7 -3 16 -2 19 1 4 3 -2 6 -13 5 -11 0 -14 -3 -6 -6z"/>
<path d="M140 1945 l0 -85 290 0 290 0 0 85 c0 50 -4 85 -10 85 -6 0 -10 -32
-10 -75 l0 -75 -270 0 -270 0 0 75 c0 43 -4 75 -10 75 -6 0 -10 -35 -10 -85z"/>
<path d="M227 1983 c-14 -13 -6 -31 16 -36 20 -5 20 -5 5 7 -10 7 -18 16 -18
19 0 3 8 8 18 10 14 4 14 5 1 6 -9 0 -19 -2 -22 -6z"/>
<path d="M284 1977 c-9 -25 0 -62 16 -62 10 0 15 10 15 34 0 36 -21 54 -31 28z
m26 -27 c0 -16 -4 -30 -10 -30 -5 0 -10 14 -10 30 0 17 5 30 10 30 6 0 10 -13
10 -30z"/>
<path d="M350 1986 c0 -2 7 -6 15 -10 8 -3 15 -1 15 4 0 6 -7 10 -15 10 -8 0
-15 -2 -15 -4z"/>
<path d="M433 1950 c-1 -25 1 -37 4 -27 4 15 7 16 21 5 15 -11 15 -11 5 3 -10
12 -10 18 0 29 10 12 9 12 -5 1 -14 -10 -17 -9 -21 11 -2 13 -4 3 -4 -22z"/>
<path d="M342 1950 c0 -14 2 -19 5 -12 2 6 2 18 0 25 -3 6 -5 1 -5 -13z"/>
<path d="M491 1938 c2 -31 2 -31 6 -5 2 15 8 27 13 27 5 0 11 -12 13 -27 4
-26 4 -26 6 5 1 26 -3 32 -19 32 -16 0 -20 -6 -19 -32z"/>
<path d="M545 1960 c3 -5 8 -10 11 -10 2 0 4 5 4 10 0 6 -5 10 -11 10 -5 0 -7
-4 -4 -10z"/>
<path d="M3006 1952 c-2 -4 -7 -23 -11 -43 -5 -30 -3 -37 11 -43 12 -5 23 -1
31 10 19 25 16 45 -6 51 -12 3 -17 11 -14 19 5 15 -2 20 -11 6z m23 -64 c-8
-14 -14 -17 -22 -9 -7 7 -6 15 3 25 17 22 32 9 19 -16z"/>
<path d="M2790 1911 c-20 -41 -28 -70 -9 -38 5 9 16 17 24 17 7 0 16 -8 18
-17 3 -10 5 1 6 24 1 57 -14 62 -39 14z m26 -8 c-10 -10 -19 5 -10 18 6 11 8
11 12 0 2 -7 1 -15 -2 -18z"/>
<path d="M5477 1943 c-2 -5 -7 -25 -11 -46 -7 -37 -6 -38 21 -35 22 2 29 9 34
36 5 26 3 35 -12 42 -21 12 -26 12 -32 3z m33 -23 c0 -5 -7 -10 -16 -10 -8 0
-12 5 -9 10 3 6 10 10 16 10 5 0 9 -4 9 -10z m-7 -35 c0 -6 -7 -11 -16 -13
-12 -3 -15 1 -11 13 7 17 25 17 27 0z"/>
<path d="M5746 1931 c-26 -29 -17 -65 16 -69 22 -3 30 2 38 23 13 33 13 31 -6
49 -20 21 -27 20 -48 -3z m42 -32 c-4 -35 -44 -34 -40 1 3 27 22 44 35 31 5
-5 7 -19 5 -32z"/>
<path d="M5840 1931 c-5 -11 -10 -29 -10 -41 0 -12 -5 -30 -10 -41 -7 -13 -7
-19 -1 -19 6 0 13 12 17 28 3 15 8 34 11 42 4 8 5 19 4 24 -1 5 4 13 11 17 9
6 10 9 1 9 -7 0 -17 -9 -23 -19z"/>
<path d="M240 1920 c-9 -6 -10 -10 -3 -10 6 0 15 5 18 10 8 12 4 12 -15 0z"/>
<path d="M360 1920 c-9 -6 -10 -10 -3 -10 6 0 15 5 18 10 8 12 4 12 -15 0z"/>
<path d="M2860 1911 c0 -11 -3 -27 -7 -37 -4 -12 -3 -15 5 -10 7 4 12 16 12
26 0 10 8 24 18 29 15 9 15 10 -5 11 -16 0 -23 -6 -23 -19z"/>
<path d="M2920 1915 c-17 -20 -8 -50 15 -50 21 0 33 17 34 48 1 21 -32 23 -49
2z m33 -1 c3 -4 2 -16 -4 -26 -13 -24 -33 -10 -23 15 6 18 16 21 27 11z"/>
<path d="M3077 1923 c-4 -3 -7 -18 -6 -32 1 -26 1 -25 10 3 9 31 7 41 -4 29z"/>
<path d="M3114 1904 c-4 -14 -2 -30 3 -35 5 -5 9 2 8 18 0 14 6 28 14 31 10 3
12 -2 7 -21 -3 -14 -2 -29 4 -32 5 -3 10 3 10 14 0 10 2 25 5 33 4 9 -3 14
-20 16 -19 1 -26 -4 -31 -24z"/>
<path d="M3190 1911 c0 -11 -3 -28 -6 -38 -5 -12 -4 -15 4 -8 5 6 12 19 14 29
1 11 9 21 17 24 11 4 13 -2 8 -27 -4 -20 -3 -30 3 -26 6 3 10 19 10 36 0 24
-4 29 -25 29 -18 0 -25 -5 -25 -19z"/>
<path d="M5546 1904 c-12 -30 -6 -44 18 -44 23 0 36 16 36 46 0 19 -46 18 -54
-2z m44 2 c0 -16 -14 -36 -26 -36 -16 0 -16 2 -8 24 5 14 34 24 34 12z"/>
<path d="M5626 1888 c4 -28 1 -39 -13 -47 -15 -9 -15 -10 -2 -11 16 0 65 77
55 87 -3 3 -8 -2 -12 -11 -8 -21 -21 -21 -28 2 -3 9 -3 0 0 -20z"/>
<path d="M6386 1902 c-2 -4 -1 -23 4 -42 l8 -35 1 43 c1 41 -3 50 -13 34z"/>
<path d="M6827 1903 c-3 -5 8 -8 23 -8 15 0 26 3 23 8 -2 4 -13 7 -23 7 -10 0
-21 -3 -23 -7z"/>
<path d="M6913 1903 c20 -5 22 -23 5 -43 -7 -8 -4 -7 6 2 22 19 15 49 -11 47
-17 -1 -17 -2 0 -6z"/>
<path d="M6964 1897 c-9 -25 0 -62 16 -62 10 0 15 10 15 34 0 36 -21 54 -31
28z m26 -27 c0 -16 -4 -30 -10 -30 -5 0 -10 14 -10 30 0 17 5 30 10 30 6 0 10
-13 10 -30z"/>
<path d="M7020 1906 c0 -2 9 -6 20 -9 11 -3 18 -1 14 4 -5 9 -34 13 -34 5z"/>
<path d="M7170 1868 c0 -49 5 -47 13 5 3 20 2 37 -4 37 -5 0 -9 -19 -9 -42z"/>
<path d="M7237 1873 c8 -52 13 -54 13 -5 0 23 -4 42 -9 42 -6 0 -7 -17 -4 -37z"/>
<path d="M7663 1870 c0 -25 2 -35 4 -22 2 12 2 32 0 45 -2 12 -4 2 -4 -23z"/>
<path d="M8046 1901 c-4 -5 3 -7 14 -4 23 6 26 13 6 13 -8 0 -17 -4 -20 -9z"/>
<path d="M8450 1906 c0 -2 9 -6 20 -9 11 -3 18 -1 14 4 -5 9 -34 13 -34 5z"/>
<path d="M8633 1870 c0 -25 2 -35 4 -22 2 12 2 32 0 45 -2 12 -4 2 -4 -23z"/>
<path d="M8751 1868 c1 -24 3 -35 6 -25 2 9 9 17 15 17 6 0 20 -8 31 -17 14
-13 18 -13 11 -3 -5 8 -9 26 -9 40 0 20 -6 26 -27 28 -27 3 -28 2 -27 -40z
m49 17 c0 -8 -9 -15 -20 -15 -11 0 -20 7 -20 15 0 8 9 15 20 15 11 0 20 -7 20
-15z"/>
<path d="M9042 1894 c-7 -8 -8 -14 -2 -14 5 0 10 -11 10 -25 0 -14 3 -25 8
-25 7 0 8 68 0 75 -1 1 -9 -3 -16 -11z"/>
<path d="M6435 1882 c13 -10 18 -42 6 -42 -5 0 -12 6 -14 13 -3 7 -6 4 -6 -6
-2 -31 34 -16 37 16 3 21 -1 27 -15 27 -10 0 -14 -4 -8 -8z"/>
<path d="M6505 1880 c3 -5 8 -10 11 -10 2 0 4 5 4 10 0 6 -5 10 -11 10 -5 0
-7 -4 -4 -10z"/>
<path d="M6577 1883 c-11 -10 -8 -41 4 -49 6 -3 16 -1 22 5 9 9 8 11 -5 6 -14
-6 -18 -2 -18 15 0 16 4 20 16 16 8 -3 12 -2 9 4 -7 12 -19 13 -28 3z"/>
<path d="M6653 1884 c18 -6 18 -6 0 -20 -15 -12 -15 -13 -1 -8 10 3 18 -1 21
-13 3 -10 5 -5 4 12 -2 22 -7 30 -22 32 -17 2 -17 1 -2 -3z"/>
<path d="M6743 1884 c18 -6 18 -6 0 -20 -15 -12 -15 -13 -1 -8 10 3 18 -1 21
-13 3 -10 5 -5 4 12 -2 22 -7 30 -22 32 -17 2 -17 1 -2 -3z"/>
<path d="M7283 1884 c18 -6 18 -6 0 -20 -15 -12 -15 -13 -1 -8 10 3 18 -1 21
-13 3 -10 5 -5 4 12 -2 22 -7 30 -22 32 -17 2 -17 1 -2 -3z"/>
<path d="M7336 1882 c-2 -4 4 -8 14 -8 10 0 16 4 14 8 -3 4 -9 8 -14 8 -5 0
-11 -4 -14 -8z"/>
<path d="M7394 1876 c-3 -8 -4 -23 -1 -33 3 -12 5 -8 6 10 0 15 5 27 10 27 5
0 12 -12 14 -27 5 -28 5 -28 3 1 -1 32 -22 47 -32 22z"/>
<path d="M7448 1860 c2 -16 6 -30 8 -30 2 0 4 14 4 30 0 17 -4 30 -8 30 -5 0
-7 -13 -4 -30z"/>
<path d="M7562 1860 c0 -19 2 -27 5 -17 2 9 2 25 0 35 -3 9 -5 1 -5 -18z"/>
<path d="M7586 1883 c7 -4 14 -19 17 -33 4 -22 5 -21 4 4 -1 17 -9 31 -17 33
-10 3 -11 2 -4 -4z"/>
<path d="M7624 1875 c-8 -20 2 -45 18 -44 10 0 10 2 1 6 -7 2 -13 13 -13 23 0
10 6 21 13 23 9 4 9 6 -1 6 -7 1 -15 -6 -18 -14z"/>
<path d="M7728 1883 c7 -3 16 -2 19 1 4 3 -2 6 -13 5 -11 0 -14 -3 -6 -6z"/>
<path d="M7958 1883 c7 -3 16 -2 19 1 4 3 -2 6 -13 5 -11 0 -14 -3 -6 -6z"/>
<path d="M8140 1883 c5 -2 10 -13 10 -23 0 -10 -5 -21 -10 -23 -6 -3 -5 -4 2
-3 7 2 13 13 13 26 0 13 -6 24 -13 26 -7 1 -8 0 -2 -3z"/>
<path d="M8228 1883 c7 -3 16 -2 19 1 4 3 -2 6 -13 5 -11 0 -14 -3 -6 -6z"/>
<path d="M8348 1883 c7 -3 16 -2 19 1 4 3 -2 6 -13 5 -11 0 -14 -3 -6 -6z"/>
<path d="M8512 1870 c0 -14 2 -19 5 -12 2 6 2 18 0 25 -3 6 -5 1 -5 -13z"/>
<path d="M8837 1884 c-13 -13 -7 -24 14 -24 11 0 19 5 17 12 -5 14 -22 21 -31
12z"/>
<path d="M8954 1876 c-9 -24 4 -48 23 -44 12 2 18 12 18 28 0 29 -32 41 -41
16z m36 -16 c0 -11 -7 -20 -15 -20 -8 0 -15 9 -15 20 0 11 7 20 15 20 8 0 15
-9 15 -20z"/>
<path d="M9012 1860 c0 -19 2 -27 5 -17 2 9 2 25 0 35 -3 9 -5 1 -5 -18z"/>
<path d="M7037 1862 c-23 -25 -21 -32 6 -31 18 1 18 2 4 6 -18 5 -18 6 -1 24
9 10 15 19 12 19 -3 0 -12 -8 -21 -18z"/>
<path d="M7721 1861 c-18 -11 -6 -30 19 -28 10 1 17 5 14 9 -3 4 -12 5 -22 2
-14 -5 -14 -3 2 10 21 17 11 22 -13 7z"/>
<path d="M7940 1861 c0 -4 11 -6 25 -3 14 2 25 6 25 8 0 2 -11 4 -25 4 -14 0
-25 -4 -25 -9z"/>
<path d="M8345 1860 c-3 -6 1 -7 9 -4 18 7 21 14 7 14 -6 0 -13 -4 -16 -10z"/>
<path d="M8668 1863 c6 -2 18 -2 25 0 6 3 1 5 -13 5 -14 0 -19 -2 -12 -5z"/>
<path d="M6356 1847 c3 -10 9 -15 12 -12 3 3 0 11 -7 18 -10 9 -11 8 -5 -6z"/>
<path d="M6827 1838 c2 -5 13 -8 23 -8 10 0 21 3 23 8 3 4 -8 7 -23 7 -15 0
-26 -3 -23 -7z"/>
<path d="M7205 1840 c3 -5 8 -10 11 -10 2 0 4 5 4 10 0 6 -5 10 -11 10 -5 0
-7 -4 -4 -10z"/>
<path d="M7965 1840 c-16 -7 -17 -9 -3 -9 9 -1 20 4 23 9 7 11 7 11 -20 0z"/>
<path d="M8048 1838 c5 -5 16 -8 23 -6 8 3 3 7 -10 11 -17 4 -21 3 -13 -5z"/>
<path d="M8667 1839 c7 -7 15 -10 18 -7 3 3 -2 9 -12 12 -14 6 -15 5 -6 -5z"/>
<path d="M8840 1836 c7 -7 13 -7 20 0 6 6 3 10 -10 10 -13 0 -16 -4 -10 -10z"/>
<path d="M6903 1833 c9 -2 23 -2 30 0 6 3 -1 5 -18 5 -16 0 -22 -2 -12 -5z"/>
<path d="M7818 1833 c6 -2 18 -2 25 0 6 3 1 5 -13 5 -14 0 -19 -2 -12 -5z"/>
<path d="M8228 1833 c7 -3 16 -2 19 1 4 3 -2 6 -13 5 -11 0 -14 -3 -6 -6z"/>
<path d="M8458 1833 c7 -3 16 -2 19 1 4 3 -2 6 -13 5 -11 0 -14 -3 -6 -6z"/>
<path d="M9673 5333 c9 -2 25 -2 35 0 9 3 1 5 -18 5 -19 0 -27 -2 -17 -5z"/>
<path d="M9770 5316 c0 -2 7 -7 16 -10 8 -3 12 -2 9 4 -6 10 -25 14 -25 6z"/>
<path d="M9880 5316 c0 -2 9 -6 20 -9 11 -3 18 -1 14 4 -5 9 -34 13 -34 5z"/>
<path d="M10150 5316 c0 -2 9 -6 20 -9 11 -3 18 -1 14 4 -5 9 -34 13 -34 5z"/>
<path d="M10238 5313 c7 -3 16 -2 19 1 4 3 -2 6 -13 5 -11 0 -14 -3 -6 -6z"/>
<path d="M10300 5316 c0 -2 9 -6 20 -9 11 -3 18 -1 14 4 -5 9 -34 13 -34 5z"/>
<path d="M10428 5313 c7 -3 16 -2 19 1 4 3 -2 6 -13 5 -11 0 -14 -3 -6 -6z"/>
<path d="M10500 5316 c0 -2 7 -7 16 -10 8 -3 12 -2 9 4 -6 10 -25 14 -25 6z"/>
<path d="M10565 5310 c-3 -6 1 -7 9 -4 18 7 21 14 7 14 -6 0 -13 -4 -16 -10z"/>
<path d="M10778 5313 c7 -3 16 -2 19 1 4 3 -2 6 -13 5 -11 0 -14 -3 -6 -6z"/>
<path d="M10848 5313 c7 -3 16 -2 19 1 4 3 -2 6 -13 5 -11 0 -14 -3 -6 -6z"/>
<path d="M10946 5311 c-4 -5 3 -7 14 -4 23 6 26 13 6 13 -8 0 -17 -4 -20 -9z"/>
<path d="M11107 5313 c-3 -5 5 -8 18 -8 13 0 21 3 18 8 -2 4 -10 7 -18 7 -8 0
-16 -3 -18 -7z"/>
<path d="M9673 5293 c9 -2 25 -2 35 0 9 3 1 5 -18 5 -19 0 -27 -2 -17 -5z"/>
<path d="M9883 5283 c9 -2 23 -2 30 0 6 3 -1 5 -18 5 -16 0 -22 -2 -12 -5z"/>
<path d="M10150 5280 c-18 -12 -2 -12 25 0 13 6 15 9 5 9 -8 0 -22 -4 -30 -9z"/>
<path d="M10303 5283 c9 -2 23 -2 30 0 6 3 -1 5 -18 5 -16 0 -22 -2 -12 -5z"/>
<path d="M10693 5283 c9 -2 25 -2 35 0 9 3 1 5 -18 5 -19 0 -27 -2 -17 -5z"/>
<path d="M10780 5280 c8 -5 20 -10 25 -10 6 0 3 5 -5 10 -8 5 -19 10 -25 10
-5 0 -3 -5 5 -10z"/>
<path d="M10850 5280 c8 -5 20 -10 25 -10 6 0 3 5 -5 10 -8 5 -19 10 -25 10
-5 0 -3 -5 5 -10z"/>
<path d="M10953 5283 c9 -2 23 -2 30 0 6 3 -1 5 -18 5 -16 0 -22 -2 -12 -5z"/>
<path d="M9878 5248 c5 -5 16 -8 23 -6 8 3 3 7 -10 11 -17 4 -21 3 -13 -5z"/>
<path d="M10245 5250 c-16 -7 -17 -9 -3 -9 9 -1 20 4 23 9 7 11 7 11 -20 0z"/>
<path d="M10298 5248 c5 -5 16 -8 23 -6 8 3 3 7 -10 11 -17 4 -21 3 -13 -5z"/>
<path d="M10407 5249 c7 -7 15 -10 18 -7 3 3 -2 9 -12 12 -14 6 -15 5 -6 -5z"/>
<path d="M10567 5249 c7 -7 15 -10 18 -7 3 3 -2 9 -12 12 -14 6 -15 5 -6 -5z"/>
<path d="M10715 5250 c-16 -7 -17 -9 -3 -9 9 -1 20 4 23 9 7 11 7 11 -20 0z"/>
<path d="M10785 5250 c-16 -7 -17 -9 -3 -9 9 -1 20 4 23 9 7 11 7 11 -20 0z"/>
<path d="M10855 5250 c-16 -7 -17 -9 -3 -9 9 -1 20 4 23 9 7 11 7 11 -20 0z"/>
<path d="M10948 5248 c5 -5 16 -8 23 -6 8 3 3 7 -10 11 -17 4 -21 3 -13 -5z"/>
<path d="M11107 5248 c2 -5 10 -8 18 -8 8 0 16 3 18 8 3 4 -5 7 -18 7 -13 0
-21 -3 -18 -7z"/>
<path d="M9678 5243 c12 -2 30 -2 40 0 9 3 -1 5 -23 4 -22 0 -30 -2 -17 -4z"/>
<path d="M11033 5243 c9 -2 23 -2 30 0 6 3 -1 5 -18 5 -16 0 -22 -2 -12 -5z"/>
</g>
</svg>
